<svg width="128" height="128" viewBox="0 0 128 128" fill="none" xmlns="http://www.w3.org/2000/svg">
<g id="devicon:gitlab">
<path id="Vector" d="M124.756 51.3824L124.579 50.9304L107.471 6.28236C107.123 5.40713 106.506 4.66465 105.71 4.16136C104.914 3.66654 103.984 3.42815 103.048 3.4784C102.112 3.52866 101.213 3.86513 100.474 4.44236C99.7444 5.03694 99.2146 5.84112 98.9562 6.74636L87.4052 42.0884H40.6302L29.0782 6.74636C28.8271 5.83617 28.296 5.02804 27.5602 4.43636C26.8212 3.85913 25.9228 3.52266 24.9864 3.4724C24.05 3.42215 23.1208 3.66054 22.3242 4.15536C21.5298 4.66072 20.9139 5.40254 20.5632 6.27636L3.42322 50.9044L3.25322 51.3564C-1.80578 64.5754 2.49022 79.5484 13.7902 88.0724L13.8492 88.1184L14.0062 88.2294L40.0672 107.745L52.9602 117.503L60.8142 123.433C61.7328 124.131 62.8546 124.509 64.0082 124.509C65.1618 124.509 66.2836 124.131 67.2022 123.433L75.0562 117.503L87.9492 107.745L114.167 88.1114L114.232 88.0594C125.505 79.5334 129.794 64.5874 124.756 51.3824Z" fill="#E24329"/>
<path id="Vector_2" d="M124.755 51.3817L124.578 50.9297C116.242 52.6411 108.387 56.1722 101.573 61.2707L64 89.6817C76.795 99.3617 87.934 107.772 87.934 107.772L114.152 88.1377L114.217 88.0857C125.508 79.5587 129.803 64.5977 124.755 51.3817Z" fill="#FC6D26"/>
<path id="Vector_3" d="M40.0664 107.771L52.9594 117.529L60.8134 123.459C61.732 124.156 62.8538 124.534 64.0074 124.534C65.161 124.534 66.2828 124.156 67.2014 123.459L75.0554 117.529L87.9484 107.771C87.9484 107.771 76.7964 99.3347 64.0014 89.6807C56.0182 95.7042 48.0398 101.734 40.0664 107.771Z" fill="#FCA326"/>
<path id="Vector_4" d="M26.4212 61.2713C19.6137 56.1616 11.76 52.6213 3.42322 50.9043L3.25322 51.3563C-1.80578 64.5753 2.49022 79.5483 13.7902 88.0723L13.8492 88.1183L14.0062 88.2293L40.0672 107.745L64.0012 89.6553L26.4212 61.2713Z" fill="#FC6D26"/>
</g>
</svg>
