<svg width="128" height="128" viewBox="0 0 128 128" fill="none" xmlns="http://www.w3.org/2000/svg">
<g id="devicon:docker-wordmark">
<path id="Vector" fill-rule="evenodd" clip-rule="evenodd" d="M20.0016 96.8996V88.7996C20.0016 87.6996 20.7016 86.8996 21.8016 86.8996H22.1016C23.2016 86.8996 23.9016 87.7996 23.9016 88.7996V105.8C23.9016 109.9 21.9016 113.2 18.3016 115.3C16.6016 116.3 14.8016 116.8 12.9016 116.8H12.1016C8.00156 116.8 4.70156 114.8 2.60156 111.2C1.60156 109.5 1.10156 107.7 1.10156 105.8V105C1.10156 100.9 3.10156 97.5996 6.70156 95.4996C8.40156 94.4996 10.2016 93.9996 12.1016 93.9996H12.9016C15.6016 94.0996 18.0016 95.0996 20.0016 96.8996ZM4.90156 105.4C4.90156 108.4 6.40156 110.6 9.00156 112.1C10.1016 112.7 11.2016 113 12.4016 113C15.3016 113 17.5016 111.6 19.0016 109.1C19.7016 107.9 20.0016 106.7 20.0016 105.3C20.0016 102.7 18.8016 100.7 16.7016 99.1996C15.4016 98.2996 14.0016 97.7996 12.5016 97.7996C9.30156 97.7996 7.00156 99.3996 5.60156 102.3C5.10156 103.3 4.90156 104.4 4.90156 105.4ZM37.1016 94.0996H37.6016C42.0016 94.0996 45.4016 96.1996 47.5016 100.1C48.4016 101.6 48.8016 103.3 48.8016 105.1V105.9C48.8016 110 46.8016 113.3 43.2016 115.4C41.5016 116.4 39.7016 116.9 37.8016 116.9H37.0016C32.9016 116.9 29.6016 114.9 27.5016 111.3C26.5016 109.6 26.0016 107.8 26.0016 105.9V105.1C26.0016 101 28.1016 97.6996 31.6016 95.5996C33.3016 94.4996 35.2016 94.0996 37.1016 94.0996ZM29.9016 105.4C29.9016 108.3 31.3016 110.4 33.8016 111.9C35.0016 112.6 36.2016 112.9 37.6016 112.9C40.5016 112.9 42.6016 111.4 44.1016 109C44.8016 107.8 45.1016 106.6 45.1016 105.2C45.1016 102.5 43.8016 100.4 41.6016 98.8996C40.4016 98.0996 39.0016 97.6996 37.6016 97.6996C34.4016 97.6996 32.1016 99.2996 30.7016 102.2C30.1016 103.3 29.9016 104.4 29.9016 105.4ZM64.7016 98.1996C64.1016 97.8996 63.0016 97.7996 62.4016 97.7996C59.2016 97.6996 56.9016 99.4996 55.5016 102.3C55.0016 103.3 54.8016 104.3 54.8016 105.4C54.8016 108.7 56.5016 111 59.4016 112.4C60.5016 112.9 61.8016 113 63.0016 113C64.0016 113 65.5016 112.4 66.4016 111.9L66.6016 111.8H67.4016C68.3016 112 68.9016 112.5 68.9016 113.5V113.9C68.9016 116.2 64.6016 116.8 63.0016 116.9C57.3016 117.3 53.0016 114.2 51.4016 108.7C51.1016 107.8 51.0016 106.8 51.0016 105.8V105C51.0016 100.9 53.1016 97.5996 56.6016 95.4996C58.3016 94.4996 60.1016 93.9996 62.0016 93.9996H62.8016C64.8016 93.9996 66.7016 94.5996 68.4016 95.6996L68.5016 95.7996L68.6016 95.8996C68.8016 96.1996 68.9016 96.4996 68.9016 96.8996V97.2996C68.9016 98.2996 68.2016 98.7996 67.3016 98.9996H67.0016C66.5016 98.9996 65.2016 98.3996 64.7016 98.1996ZM77.1016 100.8C78.6016 99.2996 80.1016 97.7996 81.6016 96.3996C82.0016 95.9996 83.6016 94.2996 84.2016 94.2996H85.0016C85.9016 94.4996 86.5016 94.9996 86.5016 95.9996V96.3996C86.5016 96.9996 85.8016 97.7996 85.3016 98.1996L82.6016 100.9L78.0016 105.6C80.0016 107.6 82.0016 109.6 83.9016 111.6L85.5016 113.3C85.7016 113.5 86.0016 113.7 86.1016 114C86.3016 114.3 86.4016 114.6 86.4016 114.9V115.4C86.2016 116.3 85.6016 117 84.7016 117H84.4016C83.8016 117 83.1016 116.3 82.6016 115.9C81.7016 115.1 80.8016 114.2 80.0016 113.3L77.1016 110.4V115C77.1016 116.1 76.4016 116.9 75.3016 116.9H75.0016C73.9016 116.9 73.2016 116 73.2016 115V88.8996C73.2016 87.7996 73.9016 86.9996 75.0016 86.9996H75.3016C76.4016 86.9996 77.1016 87.7996 77.1016 88.8996V100.8ZM124.702 94.1996H125.102C126.202 94.1996 127.002 94.9996 127.002 96.0996C127.002 97.6996 125.502 98.0996 124.202 98.0996C122.502 98.0996 120.802 99.0996 119.702 100.3C118.202 101.8 117.602 103.6 117.602 105.7V114.9C117.602 116 116.902 116.8 115.802 116.8H115.502C114.402 116.8 113.702 115.9 113.702 114.9V105.1C113.702 101.3 115.502 98.2996 118.602 96.0996C120.402 94.8996 122.502 94.1996 124.702 94.1996ZM97.6016 112.5C99.0016 113 100.602 112.9 102.002 112.7C102.702 112.4 104.602 111.6 105.302 111.7H105.502C105.902 111.9 106.302 112.2 106.502 112.6C107.002 113.6 106.802 114.6 105.802 115.2L105.502 115.4C101.902 117.5 98.0016 117.2 94.4016 115.2C92.7016 114.3 91.4016 112.9 90.4016 111.2L90.2016 110.8C87.9016 106.8 88.2016 102.5 90.8016 98.6996C91.7016 97.3996 92.9016 96.3996 94.3016 95.5996L94.8016 95.2996C98.2016 93.2996 101.902 93.4996 105.402 95.1996C107.302 96.0996 108.802 97.4996 109.902 99.2996L110.102 99.5996C110.902 100.9 109.902 102.1 108.902 102.9C107.702 103.8 106.502 104.9 105.402 105.9C102.702 108.1 100.102 110.3 97.6016 112.5ZM94.3016 110.2L102.802 102.9C103.802 102.1 104.802 101.2 105.802 100.3C105.002 99.2996 103.702 98.5996 102.702 98.1996C100.502 97.3996 98.3016 97.5996 96.3016 98.7996C93.7016 100.3 92.5016 102.8 92.6016 105.8C92.6016 107 93.0016 108.1 93.6016 109.2C93.8016 109.6 94.0016 109.9 94.3016 110.2ZM73.7016 33.6996H85.0016V45.1996H90.7016C93.3016 45.1996 96.0016 44.6996 98.5016 43.8996C99.7016 43.4996 101.102 42.8996 102.302 42.1996C100.702 40.0996 99.9016 37.4996 99.7016 34.8996C99.4016 31.3996 100.102 26.7996 102.502 24.0996L103.702 22.6996L105.102 23.7996C108.702 26.6996 111.602 30.5996 112.202 35.1996C116.502 33.8996 121.502 34.1996 125.302 36.3996L126.802 37.2996L126.002 38.8996C122.802 45.0996 116.102 47.0996 109.602 46.6996C99.8016 70.9996 78.6016 82.4996 52.8016 82.4996C39.5016 82.4996 27.3016 77.4996 20.3016 65.6996L20.2016 65.4996L19.2016 63.3996C16.8016 58.1996 16.1016 52.4996 16.6016 46.7996L16.8016 45.0996H26.4016V33.6996H37.7016V22.3996H60.2016V11.0996H73.7016V33.6996Z" fill="#3A4D54"/>
<path id="Vector_2" d="M110.199 37.9002C110.999 32.0002 106.599 27.4002 103.799 25.2002C100.699 28.8002 100.199 38.4002 105.099 42.4002C102.299 44.8002 96.5988 47.1002 90.5988 47.1002H18.3988C17.7988 53.3002 18.8988 59.0002 21.3988 63.9002L22.1988 65.4002C22.6988 66.3002 23.2988 67.1002 23.8988 68.0002C26.8988 68.2002 29.5988 68.3002 32.0988 68.2002C36.9988 68.1002 40.9988 67.5002 44.0988 66.5002C44.5988 66.3002 44.9988 66.6002 45.1988 67.0002C45.3988 67.5002 45.0988 67.9002 44.6988 68.1002C44.2988 68.2002 43.8988 68.4002 43.3988 68.5002C40.9988 69.2002 38.3988 69.6002 35.0988 69.8002H34.4988C33.1988 69.9002 31.7988 69.9002 30.2988 69.9002C28.6988 69.9002 27.1988 69.9002 25.3988 69.8002C31.3988 76.6002 40.7988 80.6002 52.5988 80.6002C77.5988 80.6002 98.7988 69.5002 108.099 44.7002C114.799 45.4002 121.199 43.7002 124.099 38.0002C119.599 35.4002 113.599 36.2002 110.199 37.9002Z" fill="#00AADA"/>
<path id="Vector_3" d="M110.2 37.9002C111 32.0002 106.6 27.4002 103.8 25.2002C100.7 28.8002 100.2 38.4002 105.1 42.4002C102.3 44.8002 96.5999 47.1002 90.5999 47.1002H22.5999C22.2999 56.6002 25.7999 63.8002 32.0999 68.1002C36.9999 68.0002 40.9999 67.4002 44.0999 66.4002C44.5999 66.2002 44.9999 66.5002 45.1999 66.9002C45.3999 67.4002 45.0999 67.8002 44.6999 68.0002C44.2999 68.1002 43.8999 68.3002 43.3999 68.4002C40.9999 69.1002 38.1999 69.6002 34.8999 69.8002L34.7999 69.7002C43.2999 74.1002 55.5999 74.0002 69.7999 68.6002C85.5999 62.5002 100.4 50.9002 110.7 37.7002C110.5 37.8002 110.4 37.9002 110.2 37.9002Z" fill="#28B8EB"/>
<path id="Vector_4" d="M18.5 54.5996C18.9 57.8996 19.9 60.9996 21.4 63.8996L22.2 65.3996C22.7 66.2996 23.3 67.0996 23.9 67.9996C26.9 68.1996 29.6 68.2996 32.1 68.1996C37 68.0996 41 67.4996 44.1 66.4996C44.6 66.2996 45 66.5996 45.2 66.9996C45.4 67.4996 45.1 67.8996 44.7 68.0996C44.3 68.1996 43.9 68.3996 43.4 68.4996C41 69.1996 38.2 69.6996 34.9 69.8996H34.5C33.2 69.9996 31.8 69.9996 30.4 69.9996C28.8 69.9996 27.2 69.9996 25.5 69.8996C31.5 76.6996 41 80.6996 52.8 80.6996C74.2 80.6996 92.8 72.5996 103.6 54.6996H18.5V54.5996Z" fill="#028BB8"/>
<path id="Vector_5" d="M23.3008 54.5996C24.6008 60.3996 27.6008 64.9996 32.1008 68.0996C37.0008 67.9996 41.0008 67.3996 44.1008 66.3996C44.6008 66.1996 45.0008 66.4996 45.2008 66.8996C45.4008 67.3996 45.1008 67.7996 44.7008 67.9996C44.3008 68.0996 43.9008 68.2996 43.4008 68.3996C41.0008 69.0996 38.2008 69.5996 34.8008 69.7996C43.3008 74.1996 55.6008 74.0996 69.7008 68.6996C78.2008 65.3996 86.5008 60.4996 93.9008 54.5996H23.3008Z" fill="#019BC6"/>
<path id="Vector_6" fill-rule="evenodd" clip-rule="evenodd" d="M28.1992 35.4998H37.9992V45.2998H28.1992V35.4998ZM28.9992 36.3998H29.7992V44.4998H28.9992V36.3998ZM30.4992 36.3998H31.2992V44.4998H30.4992V36.3998ZM31.9992 36.3998H32.7992V44.4998H31.9992V36.3998ZM33.3992 36.3998H34.1992V44.4998H33.3992V36.3998ZM34.8992 36.3998H35.6992V44.4998H34.8992V36.3998ZM36.3992 36.3998H37.1992V44.4998H36.3992V36.3998ZM39.4992 24.2998H49.2992V33.9998H39.4992V24.2998ZM40.2992 25.0998H41.0992V33.1998H40.2992V25.0998ZM41.7992 25.0998H42.5992V33.1998H41.7992V25.0998ZM43.1992 25.0998H43.9992V33.1998H43.1992V25.0998ZM44.6992 25.0998H45.4992V33.1998H44.6992V25.0998ZM46.1992 25.0998H46.9992V33.1998H46.1992V25.0998ZM47.6992 25.0998H48.4992V33.1998H47.6992V25.0998Z" fill="#00ACD3"/>
<path id="Vector_7" fill-rule="evenodd" clip-rule="evenodd" d="M39.5 35.5H49.3V45.3H39.5V35.5ZM40.3 36.4H41.1V44.5H40.3V36.4ZM41.8 36.4H42.6V44.5H41.8V36.4ZM43.2 36.4H44V44.5H43.2V36.4ZM44.7 36.4H45.5V44.5H44.7V36.4ZM46.2 36.4H47V44.5H46.2V36.4ZM47.7 36.4H48.5V44.5H47.7V36.4Z" fill="#23C2EE"/>
<path id="Vector_8" fill-rule="evenodd" clip-rule="evenodd" d="M50.8008 35.5H60.6008V45.3H50.8008V35.5ZM51.6008 36.4H52.4008V44.5H51.6008V36.4ZM53.0008 36.4H53.8008V44.5H53.0008V36.4ZM54.5008 36.4H55.3008V44.5H54.5008V36.4ZM56.0008 36.4H56.8008V44.5H56.0008V36.4ZM57.5008 36.4H58.3008V44.5H57.5008V36.4ZM58.9008 36.4H59.7008V44.5H58.9008V36.4Z" fill="#00ACD3"/>
<path id="Vector_9" fill-rule="evenodd" clip-rule="evenodd" d="M50.8008 24.2998H60.6008V33.9998H50.8008V24.2998ZM51.6008 25.0998H52.4008V33.1998H51.6008V25.0998ZM53.0008 25.0998H53.8008V33.1998H53.0008V25.0998ZM54.5008 25.0998H55.3008V33.1998H54.5008V25.0998ZM56.0008 25.0998H56.8008V33.1998H56.0008V25.0998ZM57.5008 25.0998H58.3008V33.1998H57.5008V25.0998ZM58.9008 25.0998H59.7008V33.1998H58.9008V25.0998ZM62.0008 35.4998H71.8008V45.2998H62.0008V35.4998ZM62.9008 36.3998H63.7008V44.4998H62.9008V36.3998ZM64.3008 36.3998H65.1008V44.4998H64.3008V36.3998ZM65.8008 36.3998H66.6008V44.4998H65.8008V36.3998ZM67.3008 36.3998H68.1008V44.4998H67.3008V36.3998ZM68.7008 36.3998H69.5008V44.4998H68.7008V36.3998ZM70.2008 36.3998H71.0008V44.4998H70.2008V36.3998Z" fill="#23C2EE"/>
<path id="Vector_10" fill-rule="evenodd" clip-rule="evenodd" d="M62 24.2998H71.8V33.9998H62V24.2998ZM62.9 25.0998H63.7V33.1998H62.9V25.0998ZM64.3 25.0998H65.1V33.1998H64.3V25.0998ZM65.8 25.0998H66.6V33.1998H65.8V25.0998ZM67.3 25.0998H68.1V33.1998H67.3V25.0998ZM68.7 25.0998H69.5V33.1998H68.7V25.0998ZM70.2 25.0998H71V33.1998H70.2V25.0998Z" fill="#00ACD3"/>
<path id="Vector_11" fill-rule="evenodd" clip-rule="evenodd" d="M62 13H71.8V22.8H62V13ZM62.9 13.8H63.7V22H62.9V13.8ZM64.3 13.8H65.1V22H64.3V13.8ZM65.8 13.8H66.6V22H65.8V13.8ZM67.3 13.8H68.1V22H67.3V13.8ZM68.7 13.8H69.5V22H68.7V13.8ZM70.2 13.8H71V22H70.2V13.8Z" fill="#23C2EE"/>
<path id="Vector_12" fill-rule="evenodd" clip-rule="evenodd" d="M73.3008 35.5H83.1008V45.3H73.3008V35.5ZM74.1008 36.4H74.9008V44.5H74.1008V36.4ZM75.6008 36.4H76.4008V44.5H75.6008V36.4ZM77.1008 36.4H77.9008V44.5H77.1008V36.4ZM78.5008 36.4H79.3008V44.5H78.5008V36.4ZM80.0008 36.4H80.8008V44.5H80.0008V36.4ZM81.5008 36.4H82.3008V44.5H81.5008V36.4Z" fill="#00ACD3"/>
<path id="Vector_13" fill-rule="evenodd" clip-rule="evenodd" d="M48.5984 61.2002C50.0984 61.2002 51.2984 62.4002 51.2984 63.9002C51.2984 65.4002 50.0984 66.6002 48.5984 66.6002C47.0984 66.6002 45.8984 65.4002 45.8984 63.9002C45.9984 62.4002 47.1984 61.2002 48.5984 61.2002Z" fill="#D4EEF1"/>
<path id="Vector_14" fill-rule="evenodd" clip-rule="evenodd" d="M48.6 61.9004C48.8 61.9004 49.1 61.9004 49.3 62.0004C49.1 62.1004 48.9 62.4004 48.9 62.7004C48.9 63.1004 49.3 63.5004 49.7 63.5004C50 63.5004 50.3 63.3004 50.4 63.1004C50.5 63.3004 50.5 63.6004 50.5 63.8004C50.5 64.9004 49.6 65.7004 48.6 65.7004C47.5 65.7004 46.7 64.8004 46.7 63.8004C46.7 62.8004 47.6 61.9004 48.6 61.9004ZM1 55.6004H126.3C123.6 54.9004 117.7 54.0004 118.6 50.4004C113.6 56.1004 101.7 54.4004 98.6 51.6004C95.2 56.5004 75.6 54.6004 74.3 50.8004C70.1 55.8004 57 55.8004 52.8 50.8004C51.4 54.6004 31.8 56.5004 28.5 51.6004C25.5 54.4004 13.5 56.1004 8.5 50.4004C9.6 53.9004 3.7 54.9004 1 55.6004Z" fill="#3A4D54"/>
<path id="Vector_15" d="M55.7992 80.6004C49.0992 77.4004 45.4992 73.1004 43.3992 68.4004C40.8992 69.1004 37.8992 69.6004 34.4992 69.8004C33.1992 69.9004 31.7992 69.9004 30.3992 69.9004C28.6992 69.9004 26.9992 69.9004 25.1992 69.8004C31.2992 75.9004 38.8992 80.6004 52.7992 80.7004C53.7992 80.6004 54.7992 80.6004 55.7992 80.6004Z" fill="#BFDBE0"/>
<path id="Vector_16" d="M45.9 72.7004C45 71.4004 44.1 69.9004 43.4 68.4004C40.9 69.1004 37.9 69.6004 34.5 69.8004C36.9 71.1004 40.3 72.3004 45.9 72.7004Z" fill="#D4EEF1"/>
</g>
</svg>
