<svg width="40" height="40" viewBox="0 0 40 40" fill="none" xmlns="http://www.w3.org/2000/svg">
<path d="M20 0C8.95437 0 0 8.95437 0 20C0 31.0462 8.95437 40 20 40C31.0462 40 40 31.0462 40 20C40 8.95437 31.0462 0 20 0ZM20 37.5394C10.3506 37.5394 2.5 29.6494 2.5 19.9999C2.5 10.3505 10.3506 2.49992 20 2.49992C29.6494 2.49992 37.5 10.3506 37.5 19.9999C37.5 29.6493 29.6494 37.5394 20 37.5394ZM28.75 18.75H21.25V11.25C21.25 10.56 20.69 10 20 10C19.31 10 18.75 10.56 18.75 11.25V18.75H11.25C10.56 18.75 10 19.31 10 20C10 20.69 10.56 21.25 11.25 21.25H18.75V28.75C18.75 29.44 19.31 30 20 30C20.69 30 21.25 29.44 21.25 28.75V21.25H28.75C29.44 21.25 30 20.69 30 20C30 19.31 29.44 18.75 28.75 18.75Z" fill="black" fill-opacity="0.3"/>
<path d="M20.75 18.75V19.25H21.25H28.75C29.1639 19.25 29.5 19.5861 29.5 20C29.5 20.4139 29.1639 20.75 28.75 20.75H21.25H20.75V21.25V28.75C20.75 29.1639 20.4139 29.5 20 29.5C19.5861 29.5 19.25 29.1639 19.25 28.75V21.25V20.75H18.75H11.25C10.8361 20.75 10.5 20.4139 10.5 20C10.5 19.5861 10.8361 19.25 11.25 19.25H18.75H19.25V18.75V11.25C19.25 10.8361 19.5861 10.5 20 10.5C20.4139 10.5 20.75 10.8361 20.75 11.25V18.75ZM0.5 20C0.5 9.23052 9.23052 0.5 20 0.5C30.7701 0.5 39.5 9.23051 39.5 20C39.5 30.7701 30.7701 39.5 20 39.5C9.23051 39.5 0.5 30.7701 0.5 20ZM2 19.9999C2 29.9241 10.073 38.0394 20 38.0394C29.927 38.0394 38 29.9239 38 19.9999C38 10.0744 29.9255 1.99992 20 1.99992C10.0745 1.99992 2 10.0744 2 19.9999Z" stroke="black" stroke-opacity="0.3"/>
</svg>
