<svg width="217" height="292" viewBox="0 0 217 292" fill="none" xmlns="http://www.w3.org/2000/svg">
<path d="M0 0H216.8V291.688H0V0Z" fill="white"/>
<path d="M0.5 0.5H216.3V291.188H0.5V0.5Z" stroke="black" stroke-opacity="0.3"/>
<path d="M108 126C96.9544 126 88 134.954 88 146C88 157.046 96.9544 166 108 166C119.046 166 128 157.046 128 146C128 134.954 119.046 126 108 126ZM108 163.539C98.3506 163.539 90.5 155.649 90.5 146C90.5 136.351 98.3506 128.5 108 128.5C117.649 128.5 125.5 136.351 125.5 146C125.5 155.649 117.649 163.539 108 163.539ZM116.75 144.75H109.25V137.25C109.25 136.56 108.69 136 108 136C107.31 136 106.75 136.56 106.75 137.25V144.75H99.25C98.56 144.75 98 145.31 98 146C98 146.69 98.56 147.25 99.25 147.25H106.75V154.75C106.75 155.44 107.31 156 108 156C108.69 156 109.25 155.44 109.25 154.75V147.25H116.75C117.44 147.25 118 146.69 118 146C118 145.31 117.44 144.75 116.75 144.75Z" fill="black" fill-opacity="0.3"/>
<path d="M108.75 144.75V145.25H109.25H116.75C117.164 145.25 117.5 145.586 117.5 146C117.5 146.414 117.164 146.75 116.75 146.75H109.25H108.75V147.25V154.75C108.75 155.164 108.414 155.5 108 155.5C107.586 155.5 107.25 155.164 107.25 154.75V147.25V146.75H106.75H99.25C98.8361 146.75 98.5 146.414 98.5 146C98.5 145.586 98.8361 145.25 99.25 145.25H106.75H107.25V144.75V137.25C107.25 136.836 107.586 136.5 108 136.5C108.414 136.5 108.75 136.836 108.75 137.25V144.75ZM88.5 146C88.5 135.231 97.2305 126.5 108 126.5C118.77 126.5 127.5 135.231 127.5 146C127.5 156.77 118.77 165.5 108 165.5C97.2305 165.5 88.5 156.77 88.5 146ZM90 146C90 155.924 98.073 164.039 108 164.039C117.927 164.039 126 155.924 126 146C126 136.074 117.926 128 108 128C98.0745 128 90 136.074 90 146Z" stroke="black" stroke-opacity="0.3"/>
</svg>
