<?xml version="1.0" standalone="no"?>
<!DOCTYPE svg PUBLIC "-//W3C//DTD SVG 20010904//EN"
 "http://www.w3.org/TR/2001/REC-SVG-20010904/DTD/svg10.dtd">
<svg version="1.0" xmlns="http://www.w3.org/2000/svg"
 width="225.000000pt" height="225.000000pt" viewBox="0 0 225.000000 225.000000"
 preserveAspectRatio="xMidYMid meet">

<g transform="translate(0.000000,225.000000) scale(0.100000,-0.100000)"
fill="#000000" stroke="none">
<path d="M260 1293 l0 -498 249 -133 249 -132 635 2 634 3 -243 130 -244 130
0 497 0 498 -640 0 -640 0 0 -497z m209 362 c-1 -5 -10 -9 -20 -7 -32 6 -29
-16 6 -37 39 -23 42 -32 19 -55 -25 -26 -86 -14 -69 13 5 9 10 9 20 1 15 -12
35 -6 35 11 0 5 -11 14 -25 19 -31 12 -41 35 -24 56 13 16 61 16 58 -1z m118
-53 c19 -51 20 -62 8 -62 -8 0 -15 5 -15 10 0 6 -13 10 -30 10 -16 0 -30 -4
-30 -10 0 -5 -7 -10 -14 -10 -13 0 -12 9 4 55 11 31 22 60 25 66 13 21 31 1
52 -59z m71 43 l20 -25 20 25 c32 41 42 31 42 -40 0 -37 -4 -65 -10 -65 -5 0
-10 19 -10 43 l-1 42 -20 -25 -21 -24 -19 24 -19 25 0 -43 c0 -30 -4 -42 -12
-40 -8 3 -12 25 -11 64 2 70 1 64 12 64 5 0 18 -11 29 -25z m171 16 c17 -11
-1 -23 -22 -15 -28 10 -28 -15 0 -28 46 -22 39 -78 -11 -78 -33 0 -53 17 -39
31 9 9 16 9 25 1 8 -6 19 -7 27 -2 11 6 6 12 -17 24 -39 20 -45 31 -32 56 11
21 45 26 69 11z m53 -43 c2 -39 7 -53 18 -53 11 0 16 14 18 53 2 39 7 52 19
52 13 0 15 -10 11 -56 -5 -58 -16 -74 -55 -74 -29 0 -43 28 -43 84 0 34 4 46
14 46 11 0 16 -15 18 -52z m132 10 l25 -43 1 43 c0 31 4 42 13 39 7 -2 11 -18
9 -38 l-3 -33 24 35 c14 22 32 35 49 37 34 4 74 -16 60 -30 -7 -7 -17 -6 -30
1 -26 14 -28 14 -46 -5 -33 -32 -3 -84 38 -68 20 8 21 24 1 24 -8 0 -15 5 -15
10 0 6 14 10 30 10 35 0 40 -22 13 -52 -24 -26 -68 -23 -91 7 l-20 25 -6 -25
c-9 -35 -22 -31 -53 17 l-28 42 -3 -42 c-5 -67 -22 -49 -22 23 0 79 16 85 54
23z m-545 -143 c-1 -5 -10 -9 -20 -7 -31 5 -32 -18 -1 -29 39 -14 48 -37 23
-62 -23 -23 -71 -17 -71 9 0 11 5 14 18 9 29 -11 37 -11 37 3 0 7 -11 18 -25
25 -28 14 -38 45 -18 58 17 12 59 7 57 -6z m58 -15 c8 -44 21 -46 29 -5 8 46
33 43 49 -5 l12 -35 12 38 c7 20 19 37 26 37 10 0 9 -13 -5 -61 -10 -34 -22
-64 -25 -68 -9 -9 -35 29 -35 51 0 29 -16 21 -26 -14 -15 -51 -35 -40 -55 30
-15 53 -15 62 -3 62 8 0 17 -13 21 -30z m101 -153 c21 -17 -3 -31 -27 -15 -27
17 -56 0 -56 -32 0 -32 29 -49 55 -32 25 15 46 6 30 -13 -18 -22 -60 -27 -85
-11 -30 20 -38 46 -25 80 16 42 70 54 108 23z m107 -45 c22 -61 20 -87 -5 -57
-7 8 -20 15 -30 15 -10 0 -23 -7 -30 -15 -23 -28 -29 -4 -11 43 10 26 21 55
24 65 11 31 28 14 52 -51z m118 40 c37 -33 8 -97 -50 -107 l-31 -5 -4 66 c-1
36 -1 68 2 70 8 8 65 -8 83 -24z m105 11 c2 -9 -7 -13 -28 -13 -39 0 -36 -23
3 -28 37 -4 34 -22 -3 -22 -20 0 -30 -5 -30 -15 0 -10 10 -15 31 -15 44 0 32
-24 -14 -28 l-37 -3 0 64 c0 35 3 67 7 71 11 11 66 2 71 -11z m51 -10 l21 -28
21 28 c11 15 25 27 30 27 5 0 9 -31 9 -70 0 -40 -4 -70 -10 -70 -5 0 -10 21
-10 48 l0 47 -20 -25 -20 -25 -20 24 -20 23 0 -46 c0 -44 -15 -64 -22 -30 -6
29 4 124 12 124 5 0 18 -12 29 -27z m181 -8 c-8 -9 -16 -35 -19 -58 -7 -52
-24 -54 -32 -5 -3 20 -13 48 -23 62 -19 30 -4 36 25 10 16 -14 18 -14 29 6 8
16 15 19 23 11 7 -7 6 -15 -3 -26z m-704 -35 c16 -47 18 -60 8 -60 -8 0 -14 5
-14 10 0 14 -43 13 -58 -2 -18 -18 -26 -2 -14 29 6 15 16 40 21 56 16 43 34
32 57 -33z m104 -120 c42 -42 14 -110 -46 -110 -58 0 -83 63 -42 107 26 28 61
30 88 3z m101 10 c20 -11 26 -54 9 -65 -7 -4 -7 -12 0 -25 13 -24 13 -30 -1
-30 -6 0 -19 10 -30 23 l-18 22 -1 -22 c0 -14 -6 -23 -15 -23 -12 0 -15 14
-15 65 0 63 1 65 26 65 14 0 34 -5 45 -10z m-221 -10 c0 -5 -12 -10 -26 -10
-31 0 -28 -23 4 -28 30 -5 28 -22 -3 -22 -20 0 -25 -5 -25 -25 0 -14 -4 -25
-10 -25 -6 0 -10 27 -10 60 l0 60 35 0 c19 0 35 -4 35 -10z m-39 -172 l12 -22
17 22 c29 35 44 26 21 -12 -12 -18 -21 -47 -21 -65 0 -17 -4 -31 -10 -31 -8 0
-15 35 -8 43 2 1 -7 18 -20 38 -24 40 -27 49 -12 49 5 0 15 -10 21 -22z m195
-15 l22 -33 -2 31 c0 18 4 34 11 36 8 3 13 -13 15 -49 2 -39 7 -53 18 -53 11
0 16 14 18 53 2 37 7 52 18 52 18 0 20 -100 2 -118 -23 -23 -66 -14 -82 16 -8
15 -15 22 -16 15 0 -21 -31 -43 -60 -43 -19 0 -36 9 -49 26 -26 33 -26 45 0
78 30 38 75 33 105 -11z m214 22 c0 -8 -7 -15 -15 -15 -11 0 -15 -12 -15 -50
0 -38 -4 -50 -15 -50 -11 0 -15 12 -15 50 0 38 -4 50 -15 50 -8 0 -15 7 -15
15 0 11 12 15 45 15 33 0 45 -4 45 -15z m40 -10 c0 -18 5 -25 20 -25 15 0 20
7 20 25 0 16 6 25 15 25 12 0 15 -14 15 -65 0 -51 -3 -65 -15 -65 -9 0 -15 9
-15 25 0 18 -5 25 -20 25 -15 0 -20 -7 -20 -25 0 -16 -6 -25 -15 -25 -12 0
-15 14 -15 65 0 51 3 65 15 65 9 0 15 -9 15 -25z"/>
<path d="M540 1605 c0 -8 5 -15 10 -15 6 0 10 7 10 15 0 8 -4 15 -10 15 -5 0
-10 -7 -10 -15z"/>
<path d="M690 1265 c0 -8 5 -15 10 -15 6 0 10 7 10 15 0 8 -4 15 -10 15 -5 0
-10 -7 -10 -15z"/>
<path d="M790 1270 c0 -26 5 -40 13 -40 34 0 52 62 21 74 -29 11 -34 6 -34
-34z"/>
<path d="M445 1277 c-8 -19 -2 -31 13 -26 5 2 6 13 2 24 -7 19 -8 19 -15 2z"/>
<path d="M517 1133 c-12 -12 -7 -50 8 -63 17 -14 51 -5 59 16 13 35 -41 73
-67 47z"/>
<path d="M650 1120 c0 -23 25 -27 33 -6 7 16 -1 26 -20 26 -7 0 -13 -9 -13
-20z"/>
<path d="M534 943 c-5 -19 -2 -30 11 -40 11 -7 22 -13 25 -13 3 0 14 6 25 13
13 10 16 21 11 40 -5 22 -12 27 -36 27 -24 0 -31 -5 -36 -27z"/>
</g>
</svg>
