<?xml version="1.0" standalone="no"?>
<!DOCTYPE svg PUBLIC "-//W3C//DTD SVG 20010904//EN"
 "http://www.w3.org/TR/2001/REC-SVG-20010904/DTD/svg10.dtd">
<svg version="1.0" xmlns="http://www.w3.org/2000/svg"
 width="294.000000pt" height="171.000000pt" viewBox="0 0 294.000000 171.000000"
 preserveAspectRatio="xMidYMid meet">

<g transform="translate(0.000000,171.000000) scale(0.100000,-0.100000)"
fill="#000000" stroke="none">
<path d="M0 1325 c0 -340 2 -385 15 -385 12 0 15 -9 14 -38 -2 -31 4 -45 30
-75 59 -64 77 -119 44 -131 -17 -7 -33 9 -33 34 0 8 -9 30 -20 48 -11 18 -20
37 -20 43 0 6 -7 18 -16 27 -16 15 -16 9 -12 -88 3 -58 13 -132 23 -165 10
-33 23 -85 29 -115 l11 -55 60 4 c46 2 65 8 83 26 14 14 30 21 42 18 16 -4 20
-1 18 20 -1 14 -5 24 -9 21 -4 -2 -10 0 -13 5 -4 5 7 12 23 16 23 5 29 11 26
30 -1 14 1 22 5 20 9 -6 17 33 12 58 -2 10 -11 16 -19 15 -9 -2 -18 3 -21 10
-2 7 2 12 9 11 26 -4 50 13 44 31 -3 10 2 25 10 34 14 14 14 16 2 16 -9 0 -17
-4 -19 -9 -1 -5 -9 -3 -16 5 -11 12 -8 14 15 14 20 0 24 3 14 9 -11 7 -11 9 0
14 8 3 4 6 -9 6 -13 1 -20 -3 -17 -9 3 -6 1 -10 -4 -10 -6 0 -11 5 -11 10 0 6
-16 10 -35 10 -29 0 -35 4 -35 21 0 18 -5 20 -37 17 -32 -2 -37 0 -38 20 -1
13 4 22 12 22 8 0 11 5 8 11 -4 6 2 13 14 16 25 7 28 30 4 36 -17 4 -17 5 0 6
9 0 17 5 17 11 0 13 37 7 52 -8 16 -16 29 -15 27 1 -4 31 2 35 51 34 33 -1 50
-6 50 -14 0 -7 6 -13 13 -13 13 0 16 -11 18 -52 1 -23 39 -19 39 4 0 23 15 31
29 14 9 -11 10 -31 3 -73 -5 -32 -10 -47 -11 -33 -1 14 -6 32 -11 40 -8 12
-10 11 -10 -8 0 -12 -6 -25 -14 -28 -9 -3 -12 -12 -9 -21 5 -13 1 -15 -20 -9
-22 5 -27 3 -27 -13 0 -11 6 -22 13 -24 10 -4 10 -6 0 -6 -18 -1 -16 -27 2
-55 15 -22 14 -25 -13 -52 -21 -22 -31 -43 -36 -82 -4 -29 -10 -60 -13 -69 -6
-14 2 -15 75 -9 l82 6 0 -29 c0 -27 21 -47 35 -33 3 4 34 7 68 8 79 2 207 24
207 36 0 5 5 6 10 3 6 -4 33 -4 59 0 43 6 48 9 49 31 0 20 -6 24 -28 24 -15 0
-41 7 -56 15 -21 11 -24 15 -11 15 10 0 15 5 12 10 -4 6 7 10 25 10 18 0 29 4
25 10 -4 6 5 10 19 10 14 0 26 5 26 11 0 6 -9 9 -20 6 -11 -3 -20 -1 -20 4 0
5 9 9 20 9 15 0 20 7 20 25 0 24 -9 30 -37 26 -7 -1 -13 7 -13 19 0 13 -7 20
-20 20 -11 0 -20 5 -20 10 0 6 -19 10 -42 10 -51 1 -113 46 -113 83 -1 29 9
35 58 31 47 -3 70 6 41 17 -17 6 -16 8 9 14 18 5 35 2 50 -8 23 -15 24 -15 45
46 11 34 32 92 46 130 20 51 23 67 12 67 -8 0 -16 -7 -20 -15 -7 -18 -37 -20
-33 -2 1 6 -6 11 -16 11 -14 -2 -15 1 -6 12 8 10 8 14 0 14 -6 0 -11 5 -11 10
0 6 11 10 24 10 14 0 28 5 31 10 3 6 15 10 26 10 10 0 19 -4 19 -10 0 -5 4
-10 8 -10 7 0 78 184 84 220 10 54 118 122 139 87 4 -5 16 -7 28 -4 12 3 24 1
27 -4 9 -15 27 -10 20 6 -4 11 2 15 22 15 32 0 47 -10 47 -29 0 -11 33 -21
120 -37 269 -51 301 -55 346 -45 38 9 46 8 59 -8 19 -23 48 -33 52 -19 3 7 1
31 -2 55 -4 24 -4 43 0 43 4 0 10 -23 12 -50 6 -60 12 -68 38 -52 27 16 48 15
25 -2 -16 -12 -13 -14 34 -18 29 -3 58 -11 64 -18 10 -10 3 -10 -33 -4 -25 5
-66 9 -92 9 -25 0 -44 3 -42 7 4 6 -18 12 -91 24 -22 3 -48 8 -57 10 -10 3
-19 -3 -23 -16 -4 -14 -15 -20 -35 -20 -16 0 -30 -6 -33 -12 -4 -10 -7 -10
-18 0 -11 10 -10 12 4 12 23 0 23 47 0 54 -15 4 -109 21 -300 53 -32 5 -39 -1
-34 -30 1 -5 -3 -6 -9 -2 -5 3 -10 -1 -10 -9 0 -15 22 -21 60 -17 9 1 11 -1 5
-6 -16 -12 -15 -42 1 -36 8 3 14 11 14 19 0 9 11 14 31 14 16 0 28 -4 25 -9
-3 -4 7 -7 21 -5 15 1 38 -4 52 -12 14 -9 18 -13 7 -9 -10 3 -26 0 -34 -7 -12
-10 -14 -10 -8 0 4 7 1 12 -8 12 -20 0 -21 -34 -2 -49 12 -10 20 -9 39 4 20
13 32 14 76 3 38 -9 51 -16 51 -30 0 -10 -4 -18 -10 -18 -5 0 -10 -11 -10 -25
0 -16 6 -25 15 -25 8 0 15 5 15 10 0 6 5 10 10 10 21 0 9 -30 -12 -31 -13 0
-40 -1 -61 -2 -20 -1 -37 2 -37 7 0 4 -9 6 -19 3 -10 -2 -25 -1 -32 4 -10 6
-6 9 14 9 22 0 27 4 27 25 0 20 -5 25 -24 25 -13 0 -27 -7 -30 -16 -3 -8 -10
-13 -15 -10 -5 3 -7 -4 -4 -16 3 -17 2 -19 -5 -10 -7 11 -10 10 -16 -3 -11
-30 -7 -32 47 -29 l52 3 -53 -9 c-30 -4 -78 -5 -107 -1 -39 6 -55 4 -59 -5
-15 -39 94 -66 159 -38 20 8 33 18 31 23 -8 13 83 36 95 24 6 -6 -5 -14 -33
-22 -100 -29 -131 -55 -55 -46 33 4 36 3 17 -4 -18 -7 -3 -8 50 -6 49 3 61 1
35 -3 -38 -7 -37 -8 40 -20 44 -7 83 -16 87 -20 5 -5 -1 -35 -13 -68 -11 -32
-25 -71 -29 -87 l-9 -27 71 4 c59 4 73 1 89 -15 20 -20 34 -26 24 -9 -3 6 0
10 7 10 7 0 25 20 38 45 14 25 26 41 28 35 2 -5 -4 -20 -12 -32 -22 -32 -20
-55 7 -62 12 -3 31 -19 41 -36 18 -32 18 -32 -7 -58 -22 -23 -25 -34 -21 -72
4 -43 3 -44 -9 -18 -12 26 -13 26 -25 8 -9 -16 -9 -18 2 -14 10 4 13 -3 10
-25 -2 -16 -4 -33 -6 -38 -4 -14 13 -53 23 -53 5 0 23 -30 39 -67 38 -84 35
-130 -11 -157 -16 -9 -29 -12 -29 -7 0 7 -8 7 -22 2 -13 -4 -40 -11 -61 -15
-34 -6 -37 -5 -26 7 8 8 19 13 25 10 7 -2 30 1 53 7 48 13 54 38 17 68 -18 14
-23 25 -19 42 6 22 4 22 -48 17 l-54 -6 45 10 45 11 -23 18 c-15 13 -18 20
-10 23 10 4 9 8 -2 16 -10 7 -11 11 -3 11 7 0 10 7 7 15 -4 8 -12 15 -20 15
-8 0 -14 5 -14 10 0 6 -7 10 -15 10 -18 0 -20 -36 -2 -43 7 -3 5 -6 -5 -6 -12
-1 -18 7 -19 22 l0 22 -10 -23 c-6 -15 -5 -30 1 -43 9 -16 7 -19 -14 -19 -13
0 -27 -6 -30 -12 -3 -7 -4 -1 -2 15 2 15 -1 27 -5 27 -5 0 -9 11 -9 24 0 18
-7 26 -22 29 l-23 4 23 2 c12 0 22 6 22 12 0 7 17 10 45 7 25 -2 45 0 45 4 0
5 -15 9 -32 9 -31 2 -31 2 -5 6 15 2 27 9 27 14 0 6 -9 7 -20 4 -16 -5 -20 -2
-20 15 0 17 -2 19 -14 8 -8 -7 -12 -16 -10 -19 6 -11 -41 -16 -64 -8 -12 5
-24 4 -27 -1 -4 -6 -17 -10 -31 -10 -17 0 -24 6 -24 19 0 24 38 34 57 15 8 -8
20 -14 26 -14 7 0 3 7 -7 15 -17 13 -18 15 -3 15 9 0 17 7 17 16 0 13 8 15 35
12 19 -2 35 0 35 4 0 18 28 6 35 -14 7 -20 9 -18 15 17 4 22 8 32 9 23 0 -10
6 -18 11 -18 6 0 10 -8 10 -17 1 -17 1 -17 11 0 6 10 8 29 5 43 -5 17 -2 24 9
24 8 0 15 7 15 15 0 10 -10 15 -30 15 -19 0 -30 5 -30 14 0 18 -33 24 -100 15
-30 -3 -45 -7 -32 -8 20 -1 22 -6 22 -51 l0 -50 -40 0 c-23 0 -40 5 -40 11 0
8 -4 8 -13 1 -7 -6 -41 -12 -75 -13 -61 -2 -62 -3 -62 -30 0 -27 2 -28 32 -22
21 4 29 3 24 -5 -3 -5 0 -13 6 -15 7 -3 2 -6 -12 -7 -23 -1 -23 -2 -5 -9 14
-6 3 -10 -40 -13 -95 -9 -126 -8 -120 2 4 6 1 10 -5 10 -6 0 -8 5 -5 10 3 6
-1 10 -10 10 -9 0 -15 -6 -14 -12 3 -29 -2 -35 -28 -31 l-28 3 25 -11 c24 -11
182 -5 215 7 8 4 15 1 15 -5 0 -6 -19 -11 -42 -12 -24 -1 -54 -4 -68 -8 -24
-7 -24 -7 9 -14 18 -4 44 -7 57 -7 13 0 24 -4 24 -10 0 -14 -16 -13 -85 6 -33
9 -80 16 -105 16 -32 1 -39 3 -25 9 17 7 16 8 -8 8 -15 1 -36 6 -47 11 -11 6
-30 15 -41 21 -15 8 -24 8 -32 0 -14 -14 -47 -14 -47 0 0 6 7 9 14 6 10 -4 13
-1 10 7 -6 15 36 36 71 36 20 0 25 5 25 25 0 22 -4 25 -39 25 -22 0 -43 -4
-46 -10 -4 -6 -18 -4 -37 6 -29 15 -30 15 -24 -1 5 -15 4 -16 -9 -5 -22 18
-30 6 -9 -14 9 -9 14 -19 11 -22 -8 -9 -40 44 -33 55 3 5 -1 12 -10 15 -12 5
-14 1 -9 -15 6 -18 4 -20 -13 -15 -11 4 -23 3 -26 -2 -3 -6 0 -9 7 -8 6 0 13
-2 15 -6 1 -5 -1 -8 -4 -7 -4 0 -11 -5 -15 -13 -7 -10 -9 -10 -9 0 0 6 -4 12
-10 12 -5 0 -10 -14 -10 -30 0 -17 -6 -33 -12 -35 -9 -4 -13 -37 -13 -120 0
-98 2 -115 16 -115 9 0 18 3 21 6 3 3 32 7 64 9 33 2 75 6 94 9 19 3 105 12
190 21 85 8 171 18 190 21 l35 7 -35 12 c-34 13 -34 14 -7 14 15 1 27 6 27 11
0 6 10 10 23 11 21 0 21 1 2 9 -15 6 -6 8 30 9 28 0 62 0 78 1 15 0 35 -4 45
-9 12 -8 7 -9 -20 -4 -26 4 -38 2 -38 -6 0 -8 -12 -10 -37 -6 -28 5 -34 4 -23
-4 10 -7 11 -11 3 -11 -7 0 -13 -7 -13 -16 0 -12 7 -14 33 -9 69 14 80 14 37
-1 -25 -8 -191 -33 -370 -55 -179 -22 -334 -42 -345 -44 -25 -6 -62 -65 -40
-65 24 0 17 -20 -7 -21 -22 -1 -22 -1 1 -8 37 -10 36 -28 -1 -35 -19 -3 -41
-15 -51 -26 -14 -16 -21 -18 -36 -10 -25 13 -41 13 -21 0 12 -8 12 -10 1 -10
-8 0 -26 13 -41 29 -30 31 -15 30 -181 6 -37 -6 -47 -4 -52 9 -4 10 -1 16 9
16 8 0 12 -4 9 -10 -4 -6 5 -8 22 -5 15 2 62 9 103 15 41 6 77 13 80 16 6 6
-112 -3 -153 -12 -17 -4 -27 -2 -27 5 0 6 -19 11 -47 11 -35 0 -44 3 -33 10 8
5 12 10 7 10 -4 0 -1 14 8 30 12 23 12 30 3 30 -9 0 -8 3 2 10 8 5 31 9 50 8
30 -1 31 -2 8 -5 -16 -2 -28 -9 -28 -14 0 -6 5 -9 12 -7 6 2 20 -4 30 -14 20
-20 45 -19 213 4 96 13 125 23 125 42 0 16 -37 29 -46 15 -12 -19 -20 -8 -16
22 4 30 4 31 -19 18 -15 -7 -19 -14 -11 -17 6 -2 10 -8 6 -13 -11 -18 -24 -9
-24 17 0 20 -4 25 -18 22 -10 -3 -23 1 -30 8 -14 16 -81 10 -150 -12 -23 -8
-56 -14 -72 -14 -17 0 -30 -4 -30 -10 0 -5 7 -10 15 -10 8 0 15 -4 15 -9 0 -6
-21 -13 -47 -16 -92 -12 -103 -16 -103 -35 0 -19 -32 -38 -38 -22 -1 5 -9 18
-17 28 -13 16 -14 17 -9 2 4 -11 1 -18 -6 -18 -7 0 -10 -7 -6 -15 3 -8 1 -15
-4 -15 -6 0 -10 5 -10 10 0 6 -7 10 -16 10 -8 0 -13 -4 -10 -9 3 -5 -1 -14 -9
-21 -9 -7 -13 -20 -10 -29 7 -24 -10 -44 -42 -47 -15 -1 -22 0 -15 3 6 2 12
11 12 19 0 8 7 14 15 14 8 0 15 5 15 10 0 6 -6 10 -12 10 -9 0 -8 4 2 10 13 8
12 10 -2 10 -10 0 -18 5 -18 10 0 6 -4 10 -10 10 -5 0 -9 -5 -7 -12 1 -7 -19
-15 -50 -21 -29 -5 -53 -12 -53 -17 0 -4 -10 -6 -21 -3 -16 4 -20 2 -17 -8 3
-8 14 -13 25 -12 18 2 20 -2 16 -38 -3 -23 0 -46 7 -54 10 -12 9 -16 -4 -21
-10 -4 -14 -13 -12 -23 3 -9 1 -23 -4 -31 -7 -12 -10 -8 -10 14 0 38 -6 31
-14 -17 l-7 -37 265 0 c166 0 267 4 271 10 3 6 0 10 -7 11 -7 0 -3 5 10 12 15
7 22 17 19 28 -3 10 -2 17 2 16 3 -1 17 8 30 20 30 28 49 19 24 -11 -11 -11
-27 -34 -37 -50 l-18 -29 28 6 c16 3 37 9 47 12 12 5 17 2 17 -9 0 -21 20 -20
36 2 7 9 18 17 25 17 7 0 14 6 16 13 3 6 -1 12 -7 12 -20 0 -80 32 -80 42 0 5
9 7 19 3 11 -3 22 -1 26 5 12 19 61 11 85 -15 12 -13 27 -22 31 -19 12 7 44
-33 44 -54 0 -14 9 -17 45 -16 25 0 54 4 64 9 15 6 17 5 11 -5 -18 -29 139 17
160 47 15 21 14 23 -7 27 -13 3 -34 4 -47 3 -26 -2 -32 13 -20 53 7 23 7 23 8
-7 1 -24 5 -31 16 -27 11 4 15 21 15 57 0 76 16 49 19 -33 1 -20 3 -22 11 -10
8 12 10 10 10 -10 1 -23 2 -24 14 -8 7 10 19 18 26 18 7 0 10 7 6 16 -5 14 -4
15 8 5 11 -9 15 -9 19 1 2 7 8 10 12 6 4 -4 -2 -19 -14 -34 -11 -14 -18 -30
-15 -35 3 -5 1 -9 -3 -9 -5 0 -7 -16 -5 -35 l4 -35 428 0 c333 0 429 3 433 13
4 9 6 9 6 0 1 -10 35 -13 135 -13 l135 0 -4 38 c-3 20 -2 29 1 20 3 -10 9 -18
14 -18 4 0 6 -9 3 -20 -5 -17 0 -20 26 -20 25 0 32 4 30 18 -1 9 0 20 1 25 4
13 7 27 9 38 0 6 8 8 16 5 9 -3 18 1 21 9 6 16 34 21 34 7 0 -5 -9 -18 -20
-29 -17 -18 -17 -23 -5 -33 8 -7 15 -19 15 -26 0 -21 17 -17 23 6 3 11 1 20
-4 20 -14 0 -10 17 9 36 18 18 19 22 21 64 1 19 4 21 13 12 18 -18 28 -14 28
12 0 13 6 29 14 35 12 10 17 8 25 -8 12 -22 5 -50 -17 -67 -13 -9 -11 -12 7
-17 17 -4 22 -12 20 -34 -5 -64 -1 -75 29 -71 20 2 27 8 26 25 0 12 3 20 8 17
4 -3 8 -14 8 -25 0 -14 7 -19 25 -19 14 0 25 6 25 13 0 19 20 36 36 30 8 -3
14 -13 14 -23 0 -14 10 -18 60 -19 l60 -1 0 855 0 855 -396 0 c-359 0 -394 -1
-380 -16 21 -20 20 -28 -1 -19 -14 5 -15 3 -6 -6 13 -13 37 -3 28 12 -8 12 -7
12 60 -14 45 -17 61 -29 63 -45 2 -12 9 -22 15 -22 9 0 9 -2 0 -8 -8 -5 -10
-21 -6 -45 4 -29 10 -37 22 -33 12 5 11 2 -3 -8 -13 -11 -17 -24 -14 -50 5
-41 -5 -45 -68 -22 -22 7 -46 11 -54 8 -12 -4 -12 -2 -3 8 16 17 -13 70 -38
70 -9 0 -19 7 -23 15 -3 8 -12 15 -21 15 -11 0 -10 -5 8 -22 12 -13 25 -22 29
-20 5 1 8 -9 8 -23 0 -14 -1 -25 -3 -25 -2 0 -24 7 -49 16 l-46 15 -7 87 c-3
48 -8 97 -11 110 l-4 22 -645 0 -644 0 13 -32 c17 -42 21 -144 6 -153 -6 -4
-10 -26 -9 -49 l3 -41 -54 3 c-31 2 -61 9 -70 17 -8 8 -10 15 -4 15 6 0 11 6
11 13 1 6 4 27 8 45 6 24 4 32 -6 32 -12 0 -12 2 -1 9 10 6 9 10 -7 14 -12 3
-19 1 -15 -4 3 -5 -6 -9 -20 -9 -16 0 -26 -6 -26 -15 0 -8 5 -15 10 -15 6 0
10 -9 10 -20 0 -25 -16 -26 -29 -2 -6 9 -11 13 -11 7 0 -5 -4 -4 -9 4 -7 11
-13 10 -34 -4 -15 -9 -29 -26 -32 -36 -5 -16 -10 -18 -21 -8 -7 6 -21 9 -29 5
-8 -3 -15 -1 -15 4 0 14 -28 12 -32 -1 -3 -8 -10 -6 -20 5 -9 9 -20 16 -25 16
-5 0 -9 18 -10 41 -2 35 0 39 13 28 13 -10 14 -7 12 24 -2 41 -2 42 29 51 19
6 22 4 17 -11 -5 -17 -5 -17 6 0 14 22 17 19 -44 46 -43 18 -67 21 -207 21
l-159 0 0 -385z m350 324 c0 -11 -5 -19 -11 -19 -5 0 -9 8 -7 18 1 9 -2 24 -7
32 -8 13 -7 13 8 1 9 -7 17 -22 17 -32z m552 -42 c4 -6 2 -17 -4 -24 -9 -11
-15 -9 -35 8 -12 13 -23 26 -23 30 0 12 54 0 62 -14z m106 -10 c18 -14 15 -22
-16 -33 -31 -12 -72 -2 -72 17 0 8 4 8 15 -1 18 -15 25 -10 28 18 1 20 18 20
45 -1z m1032 3 c0 -5 -4 -10 -9 -10 -6 0 -13 5 -16 10 -3 6 1 10 9 10 9 0 16
-4 16 -10z m409 -50 c8 -4 2 -7 -17 -6 -16 0 -28 4 -26 8 2 3 -2 9 -8 12 -7 3
-2 3 12 0 14 -4 31 -10 39 -14z m-1542 4 c-3 -3 -12 -4 -19 -1 -8 3 -5 6 6 6
11 1 17 -2 13 -5z m283 -54 c12 -8 11 -10 -7 -10 -13 0 -23 5 -23 10 0 13 11
13 30 0z m-665 -19 c-3 -6 -14 -11 -23 -11 -15 1 -15 2 2 15 21 16 32 13 21
-4z m85 -7 c0 -2 -9 -4 -20 -4 -11 0 -20 4 -20 9 0 5 9 7 20 4 11 -3 20 -7 20
-9z m914 -16 c-6 -22 -6 -22 13 -5 29 25 43 21 43 -15 0 -30 -1 -30 -19 -14
-10 9 -25 16 -32 14 -8 -2 -15 7 -17 20 -2 12 2 22 8 22 7 0 9 -8 4 -22z
m-974 -22 c0 -6 9 -19 20 -29 21 -18 27 -47 10 -47 -5 0 -10 7 -10 15 0 9 -9
15 -22 15 -19 0 -20 2 -8 10 13 8 13 10 -1 10 -16 0 -32 33 -22 44 8 8 33 -5
33 -18z m1331 7 c0 -5 2 -25 5 -46 4 -36 4 -37 -15 -21 -11 9 -17 23 -14 30 3
8 0 14 -6 14 -6 0 -11 -6 -11 -12 0 -9 -4 -8 -10 2 -5 8 -10 20 -10 25 0 6 5
3 10 -5 7 -11 10 -11 10 -2 0 7 5 10 10 7 6 -3 10 -1 10 4 0 12 20 15 21 4z
m-1391 -35 c0 -5 -10 -8 -22 -7 -13 0 -17 3 -10 6 6 2 12 12 12 21 0 15 2 15
10 2 5 -8 10 -18 10 -22z m186 22 c9 0 14 -11 14 -29 0 -33 -16 -49 -33 -32
-6 6 -21 11 -33 11 -13 0 -26 5 -30 12 -5 7 -2 9 7 4 8 -4 5 0 -6 9 -17 14
-18 17 -5 26 8 5 28 7 44 4 16 -3 35 -5 42 -5z m284 -10 c-8 -5 -19 -10 -25
-10 -5 0 -3 5 5 10 8 5 20 10 25 10 6 0 3 -5 -5 -10z m-37 -39 c11 -1 17 -9
17 -27 0 -23 -3 -25 -27 -20 -79 17 -101 17 -106 1 -8 -19 -37 -20 -37 -1 0 8
-5 18 -12 22 -7 5 -8 2 -3 -7 6 -11 5 -12 -5 -2 -32 30 39 44 173 34z m1552
-1 c3 -5 -1 -10 -9 -10 -9 0 -16 5 -16 10 0 6 4 10 9 10 6 0 13 -4 16 -10z
m-1453 -22 c7 -18 -2 -39 -13 -32 -12 7 -12 44 0 44 5 0 11 -6 13 -12z m-388
-46 c6 -3 20 -5 32 -4 31 4 50 -38 34 -77 -15 -37 -31 -39 -65 -9 -14 12 -34
23 -43 23 -60 4 -58 3 -54 46 l4 41 41 -6 c22 -4 45 -10 51 -14z m1504 -94
c19 -2 28 -9 30 -26 2 -13 11 -26 20 -29 9 -4 20 -11 24 -17 12 -18 -2 -26
-29 -15 -38 14 -37 6 2 -16 19 -10 35 -25 35 -34 0 -14 -2 -14 -10 -1 -11 18
-17 13 -25 -25 -5 -22 -4 -26 4 -15 8 12 13 12 23 2 6 -6 29 -12 50 -12 26 0
38 -5 40 -15 0 -8 1 -21 2 -27 1 -16 23 -31 35 -24 7 5 24 -34 18 -41 -1 -1
-19 2 -40 6 -30 7 -37 6 -37 -6 0 -8 4 -11 10 -8 5 3 19 1 30 -5 14 -8 19 -18
16 -36 -12 -66 -26 -79 -48 -45 -9 15 -16 17 -31 10 -10 -6 -25 -8 -32 -5 -7
2 -19 -2 -25 -9 -10 -12 -15 -9 -31 22 -10 20 -16 39 -14 44 3 4 1 10 -3 13
-14 8 -2 56 13 56 7 0 15 -4 17 -10 2 -5 19 -13 38 -16 32 -7 34 -6 21 9 -7 9
-23 17 -34 17 -20 0 -70 45 -73 68 -1 6 5 12 14 12 15 0 14 2 -1 18 -16 15
-19 15 -27 2 -8 -13 -11 -13 -19 -1 -5 7 -14 10 -21 6 -29 -18 -63 59 -41 94
7 11 13 11 32 -3 18 -12 20 -16 7 -16 -11 0 -15 -5 -12 -15 5 -13 9 -13 35 1
16 8 29 17 29 20 0 3 -4 3 -9 0 -5 -3 -12 1 -15 10 -3 9 -12 14 -20 11 -7 -3
-19 0 -25 6 -15 15 -14 40 1 31 7 -4 8 -3 4 5 -5 7 -16 9 -28 5 -13 -4 -18 -2
-14 4 3 6 -2 13 -11 15 -10 3 3 3 30 0 47 -4 47 -3 55 29 l7 33 3 -37 c3 -32
7 -37 30 -40z m-283 52 c4 -6 -6 -10 -22 -10 -22 0 -25 2 -13 10 19 12 27 12
35 0z m-186 -43 c1 -5 -3 -5 -9 -2 -5 3 -10 16 -9 28 0 21 1 21 9 2 5 -11 9
-24 9 -28z m651 36 c0 -5 -4 -14 -9 -21 -6 -10 -10 -9 -14 7 -3 14 0 21 9 21
8 0 14 -3 14 -7z m-407 -10 c-7 -2 -21 -2 -30 0 -10 3 -4 5 12 5 17 0 24 -2
18 -5z m60 -10 c-7 -2 -19 -2 -25 0 -7 3 -2 5 12 5 14 0 19 -2 13 -5z m-1413
-21 c0 -9 70 -38 82 -34 4 1 8 -2 8 -7 0 -5 14 -8 30 -7 23 2 30 -2 30 -16 0
-10 -7 -21 -16 -25 -15 -5 -15 -7 0 -15 9 -5 16 -16 16 -24 0 -8 -4 -12 -10
-9 -6 3 -7 -1 -4 -9 3 -9 1 -16 -5 -16 -6 0 -11 8 -11 18 0 36 -15 44 -43 22
-20 -16 -35 -20 -56 -15 -34 7 -51 45 -21 45 11 0 22 5 25 11 4 6 0 9 -11 7
-15 -2 -20 5 -24 40 -4 23 -3 42 2 42 4 0 8 -4 8 -8z m1266 -7 c31 -4 51 -11
50 -18 -3 -19 -17 -38 -25 -33 -4 3 -13 1 -21 -5 -12 -7 -10 -9 8 -9 12 0 22
-4 22 -9 0 -6 -12 -6 -31 -1 -43 13 -45 16 -10 28 35 12 41 32 11 32 -11 0
-20 -5 -20 -12 0 -6 -6 -4 -13 5 -7 11 -27 18 -49 19 -21 1 -35 5 -32 10 3 5
18 7 32 4 15 -3 50 -8 78 -11z m113 -29 c-3 -3 -16 -2 -29 1 -22 6 -22 7 -4
14 18 6 43 -5 33 -15z m271 14 c0 -5 -7 -7 -15 -4 -8 4 -15 8 -15 10 0 2 7 4
15 4 8 0 15 -4 15 -10z m47 -6 c-3 -3 -12 -4 -19 -1 -8 3 -5 6 6 6 11 1 17 -2
13 -5z m-270 -10 c-3 -3 -12 -4 -19 -1 -8 3 -5 6 6 6 11 1 17 -2 13 -5z m340
0 c-3 -3 -12 -4 -19 -1 -8 3 -5 6 6 6 11 1 17 -2 13 -5z m-387 -35 c0 -10 -4
-19 -10 -19 -5 0 -10 4 -10 9 0 5 -3 17 -6 25 -5 12 -2 15 10 10 9 -3 16 -15
16 -25z m-1120 -31 c0 -18 -2 -20 -9 -8 -6 8 -7 18 -5 22 9 14 14 9 14 -14z
m940 5 c0 -10 -5 -25 -10 -33 -7 -11 -5 -17 8 -22 11 -4 3 -7 -20 -7 -33 -1
-38 2 -39 22 0 12 -2 30 -4 40 -3 13 4 17 31 17 26 0 34 -4 34 -17z m75 -3 c3
-5 -3 -10 -15 -10 -19 0 -21 -4 -15 -31 6 -24 4 -30 -6 -27 -8 3 -13 14 -11
26 2 11 -2 23 -8 27 -5 3 -10 10 -10 16 0 12 57 12 65 -1z m100 -9 c3 -5 1
-12 -5 -16 -5 -3 -10 1 -10 9 0 18 6 21 15 7z m568 2 c-7 -2 -21 -2 -30 0 -10
3 -4 5 12 5 17 0 24 -2 18 -5z m60 -10 c-7 -2 -21 -2 -30 0 -10 3 -4 5 12 5
17 0 24 -2 18 -5z m-1686 -29 c-3 -3 -12 -4 -19 -1 -8 3 -5 6 6 6 11 1 17 -2
13 -5z m1118 -79 c-15 -31 -29 -54 -32 -52 -3 3 7 31 22 62 14 31 29 55 31 52
3 -2 -7 -30 -21 -62z m-1082 48 c-7 -2 -19 -2 -25 0 -7 3 -2 5 12 5 14 0 19
-2 13 -5z m1170 -70 c-7 -2 -19 -2 -25 0 -7 3 -2 5 12 5 14 0 19 -2 13 -5z
m-53 -16 c0 -19 -10 -27 -26 -20 -21 8 -17 33 6 33 11 0 20 -6 20 -13z m-143
-34 c-11 -10 -26 8 -20 23 5 15 7 14 15 -1 6 -9 7 -19 5 -22z m-1027 -3 c0 -5
-4 -10 -10 -10 -5 0 -10 5 -10 10 0 6 5 10 10 10 6 0 10 -4 10 -10z m1510 -62
c0 -5 -4 -8 -10 -8 -5 0 -10 10 -10 23 0 18 2 19 10 7 5 -8 10 -18 10 -22z
m-607 15 c-7 -2 -21 -2 -30 0 -10 3 -4 5 12 5 17 0 24 -2 18 -5z m367 -64 c0
-14 7 -19 29 -19 17 0 33 -5 37 -12 5 -8 2 -9 -9 -5 -12 5 -17 1 -17 -13 0
-26 -20 -26 -27 1 -4 16 -8 18 -14 7 -7 -10 -10 -8 -15 9 -4 13 -11 20 -20 16
-8 -3 -14 -1 -14 5 0 5 7 13 16 16 8 3 12 10 9 16 -3 6 1 7 9 4 9 -3 16 -15
16 -25z m-70 -4 c0 -14 5 -25 10 -25 6 0 10 -4 10 -9 0 -4 -10 -6 -23 -4 -18
4 -24 11 -24 34 0 17 6 29 14 29 7 0 13 -11 13 -25z m300 5 c0 -5 -7 -10 -15
-10 -8 0 -15 5 -15 10 0 6 7 10 15 10 8 0 15 -4 15 -10z m-552 -92 c-7 -19
-38 -22 -38 -4 0 10 9 16 21 16 12 0 19 -5 17 -12z m435 -20 c9 -18 17 -51 19
-73 2 -22 7 -46 12 -53 8 -13 -15 -42 -34 -42 -8 0 -8 6 1 21 8 15 8 19 0 15
-6 -4 -11 0 -11 9 0 9 -4 14 -8 11 -5 -3 -6 8 -4 24 3 21 -2 34 -22 51 -24 21
-25 24 -9 30 10 3 21 1 25 -5 4 -6 10 -8 13 -4 6 6 -22 38 -34 38 -17 0 -39
-27 -46 -55 -6 -28 -6 -29 13 -12 18 16 20 16 36 -2 17 -19 17 -21 -4 -59 -19
-33 -26 -38 -56 -38 -39 1 -53 22 -27 42 15 12 15 13 2 8 -9 -3 -19 1 -22 9
-4 10 1 13 21 9 25 -5 26 -4 13 12 -10 12 -11 20 -4 24 6 4 18 22 27 40 14 26
22 32 50 32 28 0 36 -5 49 -32z m357 -38 c0 -38 5 -55 24 -74 17 -19 22 -33
18 -53 l-6 -28 -7 30 c-7 33 -12 25 -9 -16 0 -14 -6 -32 -15 -39 -9 -7 -15 -9
-14 -4 1 5 0 11 -1 14 -1 3 -3 12 -5 20 -2 8 -6 23 -10 33 -4 10 -3 17 4 17 6
0 11 7 11 15 0 9 -9 5 -27 -13 -24 -23 -41 -82 -23 -80 3 0 14 0 25 -1 18 -2
17 -4 -5 -14 -14 -6 -30 -18 -36 -26 -7 -8 -16 -11 -25 -6 -11 6 -12 5 -1 -6
14 -15 16 -29 4 -29 -25 0 -40 134 -19 167 4 7 3 21 -3 32 -15 28 -13 39 10
46 11 3 20 13 20 21 0 8 7 14 15 14 9 0 18 7 21 15 6 14 8 13 20 -2 12 -17 13
-16 14 5 0 13 4 20 10 17 6 -3 10 -28 10 -55z m60 20 c0 -5 -1 -11 -2 -12 -1
-2 19 -25 45 -53 26 -27 47 -52 47 -56 0 -4 -7 -12 -16 -20 -13 -10 -17 -10
-25 2 -5 8 -9 10 -9 5 0 -5 6 -17 14 -25 16 -19 10 -84 -8 -78 -6 2 -12 25
-14 51 -3 39 -9 53 -33 73 -31 27 -62 72 -38 58 9 -6 11 -3 6 8 -3 10 -2 17 3
17 6 0 10 9 10 20 0 11 5 20 10 20 6 0 10 -4 10 -10z m-1845 -12 c32 -15 29
-38 -8 -51 -38 -12 -52 2 -36 36 14 31 11 30 44 15z m1605 -75 c1 -16 2 -16
15 1 8 11 18 17 21 13 4 -3 -1 -14 -11 -23 -10 -11 -14 -25 -11 -40 4 -14 2
-24 -4 -24 -5 0 -11 -15 -11 -32 -1 -30 -2 -29 -8 9 -8 47 -21 69 -21 34 0
-12 -7 -29 -16 -38 -8 -9 -13 -22 -9 -30 4 -12 0 -14 -15 -10 -11 3 -20 1 -20
-4 0 -5 -4 -9 -10 -9 -5 0 -10 14 -10 31 l0 32 -52 -6 c-46 -4 -49 -4 -23 5
17 6 33 16 37 22 5 8 8 7 8 -1 0 -7 5 -13 10 -13 6 0 10 9 10 21 0 15 5 19 15
15 9 -3 15 0 15 8 0 8 -9 16 -21 19 -12 3 -18 10 -14 17 4 6 12 9 19 7 6 -2
20 -1 31 4 37 15 75 10 75 -8z m-1720 -37 c0 -41 -2 -44 -30 -48 -23 -3 -30
-1 -26 9 7 18 -12 17 -30 -2 -9 -8 -26 -15 -39 -15 -13 0 -25 -3 -28 -7 -2 -5
-2 -2 0 5 1 8 3 25 3 38 0 16 6 24 18 25 16 1 16 2 0 6 -36 9 -16 22 40 26 31
2 65 4 75 5 14 2 17 -6 17 -42z m413 37 c-7 -2 -19 -2 -25 0 -7 3 -2 5 12 5
14 0 19 -2 13 -5z m883 -11 c-10 -2 -22 0 -28 6 -6 6 0 7 19 4 21 -5 23 -7 9
-10z m-321 -3 c-22 -4 -49 -8 -60 -7 -16 0 -15 2 5 8 14 4 41 8 60 8 l35 0
-40 -9z m-562 -6 c-7 -2 -21 -2 -30 0 -10 3 -4 5 12 5 17 0 24 -2 18 -5z m22
-13 c-3 -5 -12 -10 -18 -10 -7 0 -6 4 3 10 19 12 23 12 15 0z m45 0 c0 -5 -4
-10 -10 -10 -5 0 -10 5 -10 10 0 6 5 10 10 10 6 0 10 -4 10 -10z m43 3 c-7 -2
-19 -2 -25 0 -7 3 -2 5 12 5 14 0 19 -2 13 -5z m457 -19 c0 -2 -15 -4 -32 -4
-23 0 -29 3 -19 9 12 8 51 4 51 -5z m-437 -11 c-7 -2 -19 -2 -25 0 -7 3 -2 5
12 5 14 0 19 -2 13 -5z m-483 -36 c0 -18 -2 -19 -10 -7 -13 20 -13 43 0 35 6
-3 10 -16 10 -28z m647 17 c-3 -3 -12 -4 -19 -1 -8 3 -5 6 6 6 11 1 17 -2 13
-5z m-74 -11 c-7 -2 -19 -2 -25 0 -7 3 -2 5 12 5 14 0 19 -2 13 -5z m-1096 -9
c-3 -3 -12 -4 -19 -1 -8 3 -5 6 6 6 11 1 17 -2 13 -5z m2213 -4 c0 -5 -4 -10
-10 -10 -5 0 -10 5 -10 10 0 6 5 10 10 10 6 0 10 -4 10 -10z m-963 -26 c-3 -3
-12 -4 -19 -1 -8 3 -5 6 6 6 11 1 17 -2 13 -5z m-27 -13 c21 -6 16 -9 -28 -15
-32 -5 -58 -4 -63 1 -6 6 3 8 23 7 30 -3 31 -3 8 5 -25 9 -25 9 5 9 17 0 41
-3 55 -7z m1140 -11 c0 -11 -7 -20 -15 -20 -8 0 -15 5 -15 11 0 5 5 7 10 4 6
-3 10 1 10 9 0 9 2 16 5 16 3 0 5 -9 5 -20z m-1373 -16 c-3 -3 -12 -4 -19 -1
-8 3 -5 6 6 6 11 1 17 -2 13 -5z m544 -10 c37 3 46 2 29 -3 -14 -5 -37 -9 -52
-10 -16 -1 -28 -5 -28 -9 0 -4 -13 -8 -30 -7 -36 0 -36 2 -8 25 14 11 25 14
29 8 4 -6 28 -8 60 -4z m-206 -45 c-49 -10 -94 -17 -100 -15 -5 2 8 7 30 11
22 4 54 11 70 15 17 5 44 8 60 8 17 0 -10 -9 -60 -19z m295 -9 c-14 -4 -36 -8
-50 -8 -22 0 -22 1 5 8 17 4 39 8 50 8 16 0 15 -2 -5 -8z m200 0 c0 -5 -2 -10
-4 -10 -3 0 -8 5 -11 10 -3 6 -1 10 4 10 6 0 11 -4 11 -10z m520 -4 c0 -3 -4
-8 -10 -11 -5 -3 -10 -1 -10 4 0 6 5 11 10 11 6 0 10 -2 10 -4z m250 0 c0 -2
-7 -7 -16 -10 -8 -3 -12 -2 -9 4 6 10 25 14 25 6z m-1690 -51 c0 -7 -6 -16
-12 -19 -7 -3 -1 -4 14 -1 25 5 26 3 30 -44 3 -46 2 -48 -14 -35 -11 11 -18
12 -23 4 -3 -5 -11 -7 -17 -4 -6 4 -5 9 3 15 22 13 4 20 -26 9 -22 -8 -31 -7
-45 5 -15 14 -21 14 -39 4 -11 -7 -23 -10 -27 -6 -11 10 1 19 38 26 18 4 34
12 34 19 1 7 2 19 3 28 0 9 7 14 14 11 6 -2 21 -1 32 3 24 9 35 4 35 -15z
m537 19 c-3 -3 -12 -4 -19 -1 -8 3 -5 6 6 6 11 1 17 -2 13 -5z m1086 -19 c16
-4 33 -3 41 4 7 6 21 8 30 5 15 -6 15 -7 -1 -19 -15 -11 -15 -14 -1 -28 20
-20 36 -159 19 -165 -15 -5 -14 -29 2 -35 6 -2 9 -7 6 -10 -5 -7 -35 12 -70
45 -10 10 -21 13 -24 8 -8 -14 3 -30 21 -30 8 0 14 -4 14 -10 0 -5 -6 -10 -14
-10 -7 0 -16 -9 -19 -20 -3 -11 -12 -20 -21 -20 -13 0 -14 5 -6 26 9 23 8 26
-8 22 -15 -4 -17 0 -14 28 3 22 -2 39 -12 49 -22 22 -20 65 5 95 l21 25 -7
-28 c-5 -26 -4 -27 15 -17 12 6 20 21 20 35 0 19 6 25 23 26 15 1 11 4 -13 10
-19 4 -41 6 -48 4 -7 -3 -10 0 -7 5 3 6 -2 10 -12 11 -16 0 -16 1 2 8 11 5 22
5 25 0 3 -4 18 -11 33 -14z m-1126 9 c-3 -3 -12 -4 -19 -1 -8 3 -5 6 6 6 11 1
17 -2 13 -5z m-167 -16 c0 8 9 12 23 10 14 -2 21 -9 18 -18 -2 -8 -3 -27 -2
-42 1 -19 -4 -28 -14 -28 -8 0 -15 9 -15 20 0 11 -4 20 -10 20 -5 0 -10 -5
-10 -11 0 -6 -5 -9 -11 -7 -6 2 -9 6 -7 9 2 3 -3 13 -11 22 -12 15 -11 17 3
17 9 0 16 6 16 13 0 8 4 7 10 -3 7 -11 10 -12 10 -2z m494 -27 c6 -9 -151 -57
-159 -49 -3 2 27 12 65 22 39 10 70 22 70 27 0 12 17 12 24 0z m734 -26 c-3
-3 -9 2 -12 12 -6 14 -5 15 5 6 7 -7 10 -15 7 -18z m-18 -5 c0 -5 -2 -10 -4
-10 -3 0 -8 5 -11 10 -3 6 -1 10 4 10 6 0 11 -4 11 -10z m-1310 -20 c0 -5 -2
-10 -4 -10 -3 0 -8 5 -11 10 -3 6 -1 10 4 10 6 0 11 -4 11 -10z m-352 -6 c34
-10 26 -24 -10 -19 l-33 5 30 -11 c17 -7 32 -13 34 -15 7 -7 -21 -34 -30 -28
-5 3 -9 0 -9 -6 0 -6 -5 -8 -10 -5 -6 3 -14 -4 -19 -17 l-10 -23 0 23 c-1 12
-5 22 -10 22 -4 0 -7 -15 -5 -32 3 -27 2 -30 -7 -15 -13 22 -2 100 13 91 6 -4
8 1 3 15 -5 17 -2 21 17 21 13 0 33 -3 46 -6z m859 0 c-3 -3 -12 -4 -19 -1 -8
3 -5 6 6 6 11 1 17 -2 13 -5z m-187 -24 c-8 -5 -22 -9 -30 -9 -10 0 -8 3 5 9
27 12 43 12 25 0z m-75 -20 c-11 -5 -27 -9 -35 -9 -9 0 -8 4 5 9 11 5 27 9 35
9 9 0 8 -4 -5 -9z m-437 -25 c-3 -3 -9 2 -12 12 -6 14 -5 15 5 6 7 -7 10 -15
7 -18z m379 9 c-3 -3 -12 -4 -19 -1 -8 3 -5 6 6 6 11 1 17 -2 13 -5z m-47 -14
c-8 -5 -24 -9 -35 -9 -16 1 -16 2 5 9 35 11 48 11 30 0z m-85 -20 c-11 -5 -29
-9 -40 -9 l-20 0 20 9 c11 5 29 9 40 9 l20 0 -20 -9z m-72 -29 c-3 -11 -15
-22 -26 -25 -36 -9 -42 -7 -22 8 11 8 23 12 28 9 4 -2 7 -1 6 4 -3 15 1 23 10
23 5 0 7 -9 4 -19z m-48 -1 c3 -5 1 -10 -4 -10 -6 0 -11 5 -11 10 0 6 2 10 4
10 3 0 8 -4 11 -10z m1112 -24 c-4 -9 -11 -16 -17 -16 -11 0 -14 33 -3 44 11
10 26 -11 20 -28z m-832 -4 c-3 -3 -11 0 -18 7 -9 10 -8 11 6 5 10 -3 15 -9
12 -12z m-615 4 c0 -2 -9 -6 -20 -9 -11 -3 -20 -1 -20 4 0 5 9 9 20 9 11 0 20
-2 20 -4z m580 -16 c-8 -5 -19 -10 -25 -10 -5 0 -3 5 5 10 8 5 20 10 25 10 6
0 3 -5 -5 -10z"/>
<path d="M850 1371 c0 -6 9 -9 19 -8 11 0 17 5 15 9 -7 11 -34 10 -34 -1z"/>
<path d="M2114 1108 c-4 -7 -3 -8 4 -4 7 4 12 2 12 -3 0 -6 5 -11 10 -11 15 0
12 17 -5 23 -8 4 -17 1 -21 -5z"/>
<path d="M2158 1013 c7 -3 16 -2 19 1 4 3 -2 6 -13 5 -11 0 -14 -3 -6 -6z"/>
<path d="M2185 1000 c-8 -13 15 -24 27 -12 6 6 4 11 -6 15 -8 3 -18 2 -21 -3z"/>
<path d="M2172 920 c7 -23 36 -36 50 -22 14 14 11 18 -26 28 -21 5 -28 4 -24
-6z"/>
<path d="M2247 897 c-3 -9 -1 -18 6 -21 7 -2 4 -5 -5 -5 -10 -1 -18 -5 -18
-10 0 -5 14 -4 30 2 17 6 30 16 30 21 0 5 -3 6 -7 3 -3 -4 -11 1 -18 10 -11
14 -12 14 -18 0z"/>
<path d="M605 1140 c-3 -5 -3 -10 2 -11 4 0 18 -2 30 -5 12 -2 23 2 27 11 4
11 -2 15 -24 15 -16 0 -32 -4 -35 -10z"/>
<path d="M640 1680 c0 -5 7 -10 16 -10 8 0 12 5 9 10 -3 6 -10 10 -16 10 -5 0
-9 -4 -9 -10z"/>
<path d="M2099 1625 c-1 -11 -2 -26 -2 -32 1 -7 -3 -13 -9 -13 -5 0 -6 -4 -3
-10 3 -5 11 -10 17 -10 6 0 8 3 5 6 -3 4 -2 15 4 25 7 13 7 25 0 37 -10 16
-11 15 -12 -3z"/>
<path d="M2138 1593 c7 -3 16 -2 19 1 4 3 -2 6 -13 5 -11 0 -14 -3 -6 -6z"/>
<path d="M2200 1549 c0 -5 4 -8 9 -4 5 3 13 0 17 -6 3 -6 0 -15 -7 -20 -9 -6
-10 -9 -2 -9 19 0 26 20 13 35 -15 17 -30 20 -30 4z"/>
<path d="M403 1544 c-17 -7 -4 -34 16 -34 14 0 14 2 1 10 -10 6 -11 10 -2 10
6 0 12 5 12 10 0 11 -7 12 -27 4z"/>
<path d="M686 1525 c8 -13 13 -29 10 -34 -4 -5 -2 -13 4 -16 7 -4 10 7 9 34
-2 32 -7 41 -21 41 -17 0 -17 -2 -2 -25z"/>
<path d="M2223 1485 c0 -8 4 -15 9 -15 4 0 8 7 8 15 0 8 -4 15 -8 15 -5 0 -9
-7 -9 -15z"/>
<path d="M1132 1427 c-28 -29 -27 -35 1 -39 12 -2 23 -9 23 -15 1 -7 2 -17 3
-23 0 -5 8 -10 16 -10 9 0 15 -9 14 -22 0 -13 -3 -17 -6 -10 -2 6 -9 12 -14
12 -6 0 -7 -4 -4 -10 3 -5 0 -10 -9 -10 -8 0 -17 13 -21 29 -7 34 -30 58 -40
41 -3 -5 1 -10 9 -10 22 0 20 -19 -1 -27 -47 -18 -56 -63 -12 -63 16 0 28 -4
25 -9 -4 -5 2 -7 12 -4 10 2 24 -3 31 -11 8 -9 20 -16 27 -16 8 0 14 -6 15
-12 0 -7 5 -3 11 9 7 14 24 25 45 29 39 7 56 -3 30 -17 -9 -6 -17 -14 -17 -20
0 -5 11 -2 25 7 15 9 25 13 24 8 -4 -22 2 -34 16 -34 9 0 15 -10 16 -22 0 -13
3 -17 6 -10 2 6 18 12 34 12 16 0 29 5 29 10 0 6 -4 10 -9 10 -5 0 -7 9 -4 20
4 15 0 20 -15 20 -12 0 -25 -8 -31 -17 -12 -23 -26 -9 -26 25 0 25 -4 27 -62
35 -52 7 -63 12 -63 28 0 12 7 19 20 19 10 0 24 9 30 21 7 12 18 18 26 15 10
-4 14 2 14 20 0 20 -4 25 -16 20 -13 -5 -14 -4 -6 7 13 15 11 16 -50 20 -20 1
-34 5 -31 10 11 18 -46 4 -65 -16z m93 -57 l20 -9 -20 0 c-11 0 -27 4 -35 9
-13 9 -13 10 0 9 8 0 24 -4 35 -9z"/>
<path d="M1808 1353 c7 -3 16 -2 19 1 4 3 -2 6 -13 5 -11 0 -14 -3 -6 -6z"/>
<path d="M1725 1340 c3 -5 8 -10 11 -10 2 0 4 5 4 10 0 6 -5 10 -11 10 -5 0
-7 -4 -4 -10z"/>
<path d="M1430 1310 c0 -5 5 -10 10 -10 6 0 10 5 10 10 0 6 -4 10 -10 10 -5 0
-10 -4 -10 -10z"/>
<path d="M1518 1263 c7 -3 16 -2 19 1 4 3 -2 6 -13 5 -11 0 -14 -3 -6 -6z"/>
<path d="M1058 1253 c6 -2 18 -2 25 0 6 3 1 5 -13 5 -14 0 -19 -2 -12 -5z"/>
<path d="M1138 1203 c7 -3 16 -2 19 1 4 3 -2 6 -13 5 -11 0 -14 -3 -6 -6z"/>
<path d="M1165 1190 c-14 -6 -16 -9 -5 -10 8 -1 4 -6 -10 -10 l-25 -8 26 -1
c19 -1 28 5 32 19 3 11 4 20 4 19 -1 0 -11 -4 -22 -9z"/>
<path d="M1288 1183 c7 -3 16 -2 19 1 4 3 -2 6 -13 5 -11 0 -14 -3 -6 -6z"/>
<path d="M1028 1173 c-18 -4 -61 -123 -49 -133 3 -3 6 -12 6 -20 0 -8 10 -16
23 -18 16 -3 22 2 22 17 0 22 29 25 65 6 19 -10 31 -45 15 -45 -14 0 2 -49 19
-53 14 -4 14 -5 -1 -6 -10 0 -18 -5 -18 -11 0 -5 -12 -10 -27 -10 -21 0 -24 3
-13 10 8 5 11 12 8 16 -4 3 -14 -1 -23 -10 -9 -9 -29 -16 -44 -16 -25 0 -27 3
-23 30 2 17 8 30 13 30 5 0 9 6 9 14 0 9 -7 12 -20 9 -17 -4 -20 0 -20 23 l-1
29 -15 -35 c-9 -19 -16 -50 -15 -67 0 -22 -4 -33 -13 -33 -17 0 -25 -29 -19
-63 4 -19 11 -24 36 -25 23 -1 27 2 17 8 -11 7 -2 10 30 11 38 1 41 2 20 9
-17 5 -19 8 -7 9 9 1 17 6 17 11 0 13 -10 12 -40 -5 -14 -8 -29 -14 -35 -14
-5 0 16 14 49 30 32 17 62 27 65 22 3 -5 18 -10 34 -10 15 -1 41 -1 59 -2 17
-1 28 -4 24 -8 -3 -4 -25 -6 -47 -5 -47 3 -72 -8 -43 -19 17 -7 17 -8 -4 -8
-13 -1 -21 -5 -18 -10 5 -7 -39 -17 -109 -24 -72 -7 -29 -56 50 -57 50 -1 91
-20 77 -35 -4 -5 2 -5 13 0 11 4 27 9 37 12 9 3 18 16 21 29 3 19 0 24 -15 24
-11 0 -17 4 -13 9 3 6 -2 14 -11 19 -15 8 -15 10 1 16 13 4 14 10 7 19 -8 10
-2 12 27 9 l37 -4 18 57 17 56 -31 29 c-33 30 -46 38 -35 20 3 -6 -4 -10 -17
-10 -18 0 -20 2 -8 10 11 7 11 10 2 10 -7 0 -11 4 -7 10 3 5 -4 19 -16 31 -21
21 -23 22 -29 4 -4 -12 -9 -15 -14 -7 -3 6 -13 9 -21 5 -16 -6 -20 14 -7 34 5
8 13 9 22 3 8 -6 25 -10 38 -10 12 0 30 -8 41 -19 19 -19 71 -19 71 1 0 5 -5
6 -12 2 -6 -4 -17 1 -24 10 -7 10 -16 17 -20 16 -5 -1 -10 4 -13 11 -2 8 3 10
18 6 11 -3 19 -1 15 4 -3 5 -11 9 -19 9 -7 0 -16 6 -18 13 -3 6 -6 2 -6 -9 -1
-19 -41 -44 -41 -25 0 4 -10 7 -22 7 -20 -1 -23 4 -22 32 1 17 1 31 0 31 0 -1
-9 -3 -18 -6z m-14 -148 c3 -8 1 -15 -4 -15 -6 0 -10 7 -10 15 0 8 2 15 4 15
2 0 6 -7 10 -15z m69 -222 c-7 -2 -19 -2 -25 0 -7 3 -2 5 12 5 14 0 19 -2 13
-5z"/>
<path d="M1069 1168 c-6 -21 -5 -38 1 -38 5 0 8 9 7 20 -1 17 -5 26 -8 18z"/>
<path d="M1103 1143 c-1 -24 -1 -25 7 -8 11 26 12 35 2 35 -4 0 -8 -12 -9 -27z"/>
<path d="M945 1140 c3 -5 10 -10 16 -10 5 0 9 5 9 10 0 6 -7 10 -16 10 -8 0
-12 -4 -9 -10z"/>
<path d="M890 1130 c0 -6 7 -10 15 -10 8 0 15 2 15 4 0 2 -7 6 -15 10 -8 3
-15 1 -15 -4z"/>
<path d="M1225 1130 c3 -5 8 -10 11 -10 2 0 4 5 4 10 0 6 -5 10 -11 10 -5 0
-7 -4 -4 -10z"/>
<path d="M1190 1040 c0 -6 7 -10 15 -10 8 0 15 2 15 4 0 2 -7 6 -15 10 -8 3
-15 1 -15 -4z"/>
<path d="M1065 972 c6 -21 4 -23 -17 -18 l-23 6 23 -12 c30 -15 45 1 25 27
-15 20 -15 19 -8 -3z"/>
<path d="M1457 963 c-4 -3 -7 -24 -7 -45 l0 -38 60 1 c50 1 58 4 49 15 -6 8
-32 15 -58 15 l-46 2 38 6 c37 6 37 7 22 29 -16 21 -45 29 -58 15z"/>
<path d="M1410 860 c0 -11 90 -11 135 0 22 5 7 8 -52 9 -50 1 -83 -3 -83 -9z"/>
<path d="M370 840 c-12 -8 -11 -10 8 -10 12 0 22 5 22 10 0 13 -11 13 -30 0z"/>
<path d="M880 810 c0 -5 5 -10 11 -10 5 0 7 5 4 10 -3 6 -8 10 -11 10 -2 0 -4
-4 -4 -10z"/>
<path d="M1390 795 c-18 -22 -5 -30 19 -13 12 8 18 18 14 21 -10 11 -19 8 -33
-8z"/>
<path d="M1870 800 c0 -5 5 -10 10 -10 6 0 10 5 10 10 0 6 -4 10 -10 10 -5 0
-10 -4 -10 -10z"/>
<path d="M969 711 c11 -7 11 -9 0 -13 -8 -3 -9 -7 -3 -11 5 -3 16 -1 24 4 13
8 13 10 0 19 -8 5 -19 10 -25 10 -5 0 -4 -4 4 -9z"/>
<path d="M1280 649 c0 -5 5 -7 10 -4 6 3 10 8 10 11 0 2 -4 4 -10 4 -5 0 -10
-5 -10 -11z"/>
<path d="M1233 613 c-18 -7 -16 -23 2 -23 8 0 15 7 15 15 0 8 -1 15 -2 14 -2
0 -9 -3 -15 -6z"/>
<path d="M1573 455 c0 -8 4 -15 9 -15 4 0 8 7 8 15 0 8 -4 15 -8 15 -5 0 -9
-7 -9 -15z"/>
<path d="M10 420 c-13 -8 -12 -10 3 -10 9 0 17 5 17 10 0 12 -1 12 -20 0z"/>
<path d="M22 325 c0 -16 2 -22 5 -12 2 9 2 23 0 30 -3 6 -5 -1 -5 -18z"/>
<path d="M885 300 c3 -5 8 -10 11 -10 2 0 4 5 4 10 0 6 -5 10 -11 10 -5 0 -7
-4 -4 -10z"/>
<path d="M21 234 c0 -11 3 -14 6 -6 3 7 2 16 -1 19 -3 4 -6 -2 -5 -13z"/>
<path d="M25 190 c-3 -5 3 -10 14 -10 12 0 21 5 21 10 0 6 -6 10 -14 10 -8 0
-18 -4 -21 -10z"/>
<path d="M20 166 c0 -2 13 -6 29 -8 17 -2 28 -1 25 4 -5 8 -54 12 -54 4z"/>
<path d="M55 120 c-3 -5 -1 -10 4 -10 6 0 11 5 11 10 0 6 -2 10 -4 10 -3 0 -8
-4 -11 -10z"/>
<path d="M2610 86 c7 -7 14 -6 21 1 9 9 7 12 -9 10 -14 -1 -18 -5 -12 -11z"/>
<path d="M2597 63 c-3 -5 -5 -19 -5 -33 0 -18 6 -26 19 -27 17 -2 18 1 7 20
-7 12 -11 28 -10 35 3 13 -4 16 -11 5z"/>
<path d="M2790 15 c-10 -12 -10 -15 4 -15 9 0 16 7 16 15 0 8 -2 15 -4 15 -2
0 -9 -7 -16 -15z"/>
</g>
</svg>
