<svg width="46" height="53" viewBox="0 0 46 53" fill="none" xmlns="http://www.w3.org/2000/svg">
<g id="Group 220">
<path id="Vector" d="M45.5 11.25C45.5 16.075 41.575 20 36.75 20C31.925 20 28 16.075 28 11.25C28 6.42501 31.925 2.50001 36.75 2.50001C41.575 2.50001 45.5 6.42501 45.5 11.25ZM40.5 24.475C39.25 24.8 38 25 36.75 25C33.1053 24.9934 29.6118 23.5426 27.0346 20.9654C24.4574 18.3882 23.0066 14.8947 23 11.25C23 7.57501 24.45 4.25001 26.75 1.77501C26.2963 1.21886 25.7243 0.770939 25.0755 0.463873C24.4268 0.156808 23.7177 -0.00166126 23 1.31317e-05C20.25 1.31317e-05 18 2.25001 18 5.00001V5.72501C10.575 7.92501 5.5 14.75 5.5 22.5V37.5L0.5 42.5V45H45.5V42.5L40.5 37.5V24.475ZM23 52.5C25.775 52.5 28 50.275 28 47.5H18C18 48.8261 18.5268 50.0979 19.4645 51.0355C20.4021 51.9732 21.6739 52.5 23 52.5Z" fill="black"/>
<path id="Ellipse 2" d="M46 11C46 16.5228 41.7467 21 36.5 21C31.2533 21 27 16.5228 27 11C27 5.47715 31.2533 1 36.5 1C41.7467 1 46 5.47715 46 11Z" fill="#EC221F"/>
</g>
</svg>
