<svg width="52" height="58" viewBox="0 0 52 58" fill="none" xmlns="http://www.w3.org/2000/svg">
<g clip-path="url(#clip0_495_12812)">
<path d="M40.1269 44.66C43.0276 44.66 45.3797 42.6572 45.3797 40.1864C45.3797 36.2749 45.1442 33.6753 48.7748 30.5816C49.8013 29.7081 49.8013 28.2918 48.7748 27.4183C45.1442 24.3263 45.3797 21.725 45.3797 17.8135C45.3797 15.3427 43.0276 13.34 40.1269 13.34M11.8736 44.66C8.97288 44.66 6.62079 42.6572 6.62079 40.1864C6.62079 36.2749 6.85624 33.6753 3.22569 30.5816C2.19915 29.7081 2.19915 28.2918 3.22569 27.4183C6.77619 24.3942 6.62079 21.7616 6.62079 17.8118C6.62079 15.3427 8.97288 13.34 11.8736 13.34" stroke="#9D5BBF" stroke-width="3" stroke-linecap="round" stroke-linejoin="round"/>
<path d="M34.1423 15.2733C36.2854 15.4958 37.7269 15.9972 38.8031 17.1329C40.7333 19.1702 40.7333 22.4459 40.7333 29C40.7333 35.5541 40.7333 38.8312 38.8031 40.867C37.7269 42.0027 36.2838 42.5041 34.1423 42.7267M18.031 42.7267C15.888 42.5041 14.4464 42.0027 13.3703 40.867C11.44 38.8297 11.44 35.5541 11.44 29C11.44 22.4459 11.44 19.1688 13.3703 17.1329C14.4464 15.9972 15.8895 15.4958 18.031 15.2733" stroke="#328FE3" stroke-width="3" stroke-linecap="round" stroke-linejoin="round"/>
</g>
<path d="M33.6328 25.5428L30.1669 27.2857L27.9236 24.8684V23.416L30.1669 20.9987L33.6328 22.7416C33.9986 22.9284 34.4223 22.752 34.5955 22.3682C34.7688 21.9739 34.6052 21.5174 34.249 21.3307L30.475 19.4321C30.1091 19.2454 29.6759 19.3284 29.387 19.6396L27.7118 21.4448C27.5385 21.1958 27.269 21.0298 26.9609 21.0298C26.4314 21.0298 25.9981 21.4967 25.9981 22.0673V23.1048H22.9366C22.5322 21.9013 21.4732 21.0298 20.2216 21.0298C18.6234 21.0298 17.3333 22.42 17.3333 24.1422C17.3333 25.2834 17.911 26.269 18.7582 26.8189L21.2614 35.5543H20.2216C19.1626 35.5543 18.2961 36.488 18.2961 37.6292V38.6667H30.8119V37.6292C30.8119 36.488 29.9454 35.5543 28.8864 35.5543H27.3267L22.5418 25.9785C22.7055 25.7295 22.8403 25.4702 22.9366 25.1797H25.9981V26.2171C25.9981 26.7877 26.4314 27.2546 26.9609 27.2546C27.269 27.2546 27.5385 27.0886 27.7118 26.8396L29.387 28.6448C29.6759 28.956 30.1091 29.039 30.475 28.8523L34.249 26.9537C34.6148 26.767 34.7688 26.3105 34.5955 25.9163C34.4223 25.5324 33.9986 25.356 33.6328 25.5428ZM20.2216 25.1797C19.6921 25.1797 19.2588 24.7128 19.2588 24.1422C19.2588 23.5716 19.6921 23.1048 20.2216 23.1048C20.7511 23.1048 21.1844 23.5716 21.1844 24.1422C21.1844 24.7128 20.7511 25.1797 20.2216 25.1797ZM25.1413 35.5543H23.2735L20.9052 27.2546H21.0014L25.1413 35.5543Z" fill="white"/>
<defs>
<clipPath id="clip0_495_12812">
<rect width="52" height="58" fill="white"/>
</clipPath>
</defs>
</svg>
