<svg width="60" height="60" viewBox="0 0 60 60" fill="none" xmlns="http://www.w3.org/2000/svg">
<path d="M51.5719 39.9973C51.3773 39.7629 51.1863 39.5285 50.9988 39.3023C48.4207 36.184 46.8609 34.302 46.8609 25.4742C46.8609 20.9039 45.7676 17.1539 43.6125 14.3414C42.0234 12.2637 39.8754 10.6875 37.0441 9.52266C37.0077 9.50239 36.9752 9.4758 36.948 9.44414C35.9297 6.03398 33.143 3.75 30 3.75C26.857 3.75 24.0715 6.03398 23.0531 9.44062C23.026 9.47117 22.9939 9.49692 22.9582 9.5168C16.3512 12.2367 13.1402 17.4551 13.1402 25.4707C13.1402 34.302 11.5828 36.184 9.00233 39.2988C8.81483 39.525 8.62381 39.7547 8.42928 39.9938C7.92678 40.5998 7.60841 41.337 7.51183 42.1183C7.41526 42.8996 7.54454 43.6922 7.88436 44.4023C8.6074 45.9258 10.1484 46.8715 11.9074 46.8715H48.1054C49.8562 46.8715 51.3867 45.927 52.1121 44.4105C52.4534 43.7003 52.5839 42.907 52.4881 42.1248C52.3924 41.3426 52.0744 40.6043 51.5719 39.9973ZM30 56.25C31.6934 56.2486 33.3548 55.789 34.8081 54.9197C36.2614 54.0505 37.4524 52.8042 38.2547 51.3129C38.2925 51.2414 38.3111 51.1614 38.3089 51.0806C38.3066 50.9998 38.2835 50.9209 38.2417 50.8517C38.2 50.7824 38.141 50.7252 38.0706 50.6855C38.0002 50.6457 37.9207 50.6249 37.8398 50.625H22.1625C22.0815 50.6247 22.0019 50.6454 21.9313 50.685C21.8607 50.7247 21.8016 50.7819 21.7597 50.8512C21.7178 50.9204 21.6946 50.9994 21.6923 51.0803C21.69 51.1612 21.7086 51.2413 21.7465 51.3129C22.5487 52.804 23.7394 54.0502 25.1925 54.9194C26.6456 55.7886 28.3068 56.2484 30 56.25Z" fill="black"/>
</svg>
