<svg width="24" height="24" viewBox="0 0 24 24" fill="none" xmlns="http://www.w3.org/2000/svg">
<g id="precision_manufacturing_black_24dp 1" clip-path="url(#clip0_538_264)">
<g id="Group">
<path id="Vector" d="M19.93 8.35006L16.33 10.0301L14 7.70006V6.30006L16.33 3.97006L19.93 5.65006C20.31 5.83006 20.75 5.66006 20.93 5.29006C21.11 4.91006 20.94 4.47006 20.57 4.29006L16.65 2.46006C16.27 2.28006 15.82 2.36006 15.52 2.66006L13.78 4.40006C13.6 4.16006 13.32 4.00006 13 4.00006C12.45 4.00006 12 4.45006 12 5.00006V6.00006H8.82C8.4 4.84006 7.3 4.00006 6 4.00006C4.34 4.00006 3 5.34006 3 7.00006C3 8.10006 3.6 9.05006 4.48 9.58006L7.08 18.0001H6C4.9 18.0001 4 18.9001 4 20.0001V21.0001H17V20.0001C17 18.9001 16.1 18.0001 15 18.0001H13.38L8.41 8.77006C8.58 8.53006 8.72 8.28006 8.82 8.00006H12V9.00006C12 9.55006 12.45 10.0001 13 10.0001C13.32 10.0001 13.6 9.84006 13.78 9.60006L15.52 11.3401C15.82 11.6401 16.27 11.7201 16.65 11.5401L20.57 9.71006C20.95 9.53006 21.11 9.09006 20.93 8.71006C20.75 8.34006 20.31 8.17006 19.93 8.35006ZM6 8.00006C5.45 8.00006 5 7.55006 5 7.00006C5 6.45006 5.45 6.00006 6 6.00006C6.55 6.00006 7 6.45006 7 7.00006C7 7.55006 6.55 8.00006 6 8.00006ZM11.11 18.0001H9.17L6.71 10.0001H6.81L11.11 18.0001Z" fill="#85B6FF"/>
</g>
</g>
<defs>
<clipPath id="clip0_538_264">
<rect width="24" height="24" fill="white"/>
</clipPath>
</defs>
</svg>
