<svg width="22" height="22" viewBox="0 0 22 22" fill="none" xmlns="http://www.w3.org/2000/svg">
<g id="Group">
<path id="Vector" d="M1.25592 14.632C1.28992 14.309 1.52392 14.049 1.99192 13.528L3.02292 12.375C3.27492 12.055 3.45392 11.5 3.45392 11C3.45392 10.5 3.27492 9.944 3.02392 9.625L1.99092 8.472C1.52292 7.952 1.28892 7.691 1.25492 7.368C1.22092 7.045 1.39492 6.741 1.74492 6.134L2.23892 5.277C2.61192 4.629 2.79892 4.305 3.11692 4.177C3.43392 4.047 3.79292 4.149 4.51192 4.353L5.73192 4.696C6.19092 4.802 6.67192 4.742 7.08992 4.527L7.42692 4.333C7.78612 4.10266 8.06224 3.76347 8.21492 3.365L8.54892 2.368C8.76892 1.708 8.87892 1.378 9.13992 1.188C9.40292 1 9.74992 1 10.4439 1H11.5589C12.2529 1 12.6009 1 12.8619 1.189C13.1229 1.378 13.2329 1.708 13.4519 2.368L13.7869 3.365C13.9396 3.76347 14.2157 4.10266 14.5749 4.333L14.9119 4.527C15.3299 4.742 15.8119 4.802 16.2699 4.697L17.4899 4.353C18.2089 4.149 18.5679 4.047 18.8849 4.176C19.2029 4.306 19.3899 4.629 19.7629 5.277L20.2559 6.134C20.6059 6.741 20.7809 7.044 20.7469 7.368C20.7129 7.692 20.4789 7.951 20.0109 8.472L18.9799 9.625C18.7279 9.944 18.5489 10.5 18.5489 11C18.5489 11.5 18.7279 12.056 18.9789 12.375L20.0109 13.528C20.4789 14.048 20.7129 14.309 20.7469 14.632C20.7809 14.955 20.6069 15.259 20.2569 15.866L19.7629 16.723C19.3899 17.371 19.2029 17.695 18.8849 17.823C18.5679 17.953 18.2089 17.851 17.4899 17.647L16.2699 17.304C15.8111 17.1987 15.3299 17.2585 14.9109 17.473L14.5749 17.667C14.2149 17.897 13.9389 18.237 13.7869 18.635L13.4529 19.632C13.2329 20.292 13.1229 20.622 12.8619 20.812C12.6009 21 12.2529 21 11.5589 21H10.4439C9.74992 21 9.40292 21 9.14092 20.811C8.87992 20.622 8.76992 20.293 8.55092 19.633" stroke="#85B6FF" stroke-width="1.5" stroke-linecap="round" stroke-linejoin="round"/>
<path id="Vector_2" d="M1.73696 17.78C2.81696 16.7 6.48896 13.064 6.84896 12.644C7.22996 12.2 6.92096 11.6 7.10496 9.74005C7.19396 8.84005 7.38696 8.16605 7.94096 7.66405C8.60096 7.04005 9.14096 7.04005 11.001 6.99805C12.621 7.04005 12.813 6.86005 12.981 7.28005C13.101 7.58005 12.741 7.76005 12.309 8.24005C11.349 9.20005 10.785 9.68005 10.731 9.98005C10.341 11.3 11.877 12.08 12.717 11.24C13.035 10.922 14.505 9.44005 14.649 9.32005C14.757 9.22405 15.016 9.22805 15.141 9.38005C15.249 9.48605 15.261 9.50005 15.249 9.98005C15.239 10.424 15.243 11.062 15.245 11.72C15.246 12.572 15.201 13.52 14.841 14C14.121 15.08 12.921 15.14 11.841 15.188C10.821 15.248 9.98096 15.14 9.71696 15.332C9.50096 15.44 8.36096 16.64 6.98096 18.02L4.52096 20.48C2.48096 22.1 0.236957 19.58 1.73696 17.78Z" stroke="#85B6FF" stroke-width="1.5" stroke-linecap="round" stroke-linejoin="round"/>
</g>
</svg>
