<svg width="100" height="100" viewBox="0 0 100 100" fill="none" xmlns="http://www.w3.org/2000/svg">
<rect width="100" height="100" fill="white" fill-opacity="0.7"/>
<path d="M49.9987 8.33301C44.527 8.33301 39.1088 9.41075 34.0536 11.5047C28.9983 13.5986 24.405 16.6678 20.5359 20.5369C12.7219 28.3509 8.33203 38.949 8.33203 49.9997C8.33203 68.4163 20.2904 84.0413 36.832 89.583C38.9154 89.9163 39.582 88.6247 39.582 87.4997V80.458C28.0404 82.958 25.582 74.8747 25.582 74.8747C23.6654 70.0413 20.957 68.7497 20.957 68.7497C17.1654 66.1663 21.2487 66.2497 21.2487 66.2497C25.4154 66.5413 27.6237 70.5413 27.6237 70.5413C31.2487 76.8747 37.3737 74.9997 39.7487 73.9997C40.1237 71.2913 41.207 69.458 42.3737 68.4163C33.1237 67.3747 23.4154 63.7913 23.4154 47.9163C23.4154 43.2913 24.9987 39.583 27.707 36.6247C27.2904 35.583 25.832 31.2497 28.1237 25.6247C28.1237 25.6247 31.6237 24.4997 39.582 29.8747C42.8737 28.958 46.457 28.4997 49.9987 28.4997C53.5404 28.4997 57.1237 28.958 60.4154 29.8747C68.3737 24.4997 71.8737 25.6247 71.8737 25.6247C74.1654 31.2497 72.707 35.583 72.2904 36.6247C74.9987 39.583 76.582 43.2913 76.582 47.9163C76.582 63.833 66.832 67.333 57.5404 68.3747C59.0404 69.6663 60.4154 72.208 60.4154 76.083V87.4997C60.4154 88.6247 61.082 89.958 63.207 89.583C79.7487 83.9997 91.6654 68.4163 91.6654 49.9997C91.6654 44.5279 90.5876 39.1098 88.4937 34.0545C86.3997 28.9993 83.3306 24.406 79.4615 20.5369C75.5924 16.6678 70.9991 13.5986 65.9438 11.5047C60.8886 9.41075 55.4704 8.33301 49.9987 8.33301Z" fill="black"/>
</svg>
