<svg width="1440" height="80" viewBox="0 0 1440 80" fill="none" xmlns="http://www.w3.org/2000/svg">
<rect width="1440" height="80" fill="#2D3648"/>
<path d="M165.576 43.392H180.384V49.584H165.576V43.392ZM178.44 44.928H167.544V48.072H178.44V44.928ZM164.208 29.952H181.656V31.512H164.208V29.952ZM172.992 32.376C177.456 32.376 180 33.432 180 35.448C180 37.464 177.456 38.52 172.992 38.52C168.504 38.52 165.984 37.464 165.984 35.448C165.984 33.432 168.504 32.376 172.992 32.376ZM172.992 33.768C169.848 33.768 168.096 34.368 168.096 35.448C168.096 36.528 169.848 37.128 172.992 37.128C176.112 37.128 177.864 36.528 177.864 35.448C177.864 34.368 176.112 33.768 172.992 33.768ZM172.008 27.864H173.976V30.96H172.008V27.864ZM163.176 40.176H182.784V41.736H163.176V40.176ZM172.008 38.04H173.976V41.04H172.008V38.04Z" fill="white"/>
<path d="M227.448 38.208H229.2C233.88 38.208 236.448 38.112 239.496 37.584L239.712 39.168C236.568 39.72 233.928 39.792 229.2 39.792H227.448V38.208ZM227.448 29.496H237.768V31.104H229.416V39.024H227.448V29.496ZM228.768 33.768H237.168V35.376H228.768V33.768ZM241.968 28.2H243.984V41.112H241.968V28.2ZM229.968 42.192H243.984V49.584H229.968V42.192ZM242.016 43.8H231.912V47.976H242.016V43.8ZM264.046 28.176H266.038V39.48H264.046V28.176ZM252.022 40.608H266.062V45.768H254.014V48.816H252.07V44.28H264.094V42.192H252.022V40.608ZM252.07 48.072H266.782V49.632H252.07V48.072ZM249.406 29.04H251.35V32.184H257.59V29.04H259.558V38.544H249.406V29.04ZM251.35 33.72V36.936H257.59V33.72H251.35ZM286.124 28.176H288.14V41.496H286.124V28.176ZM271.652 37.776H273.452C278.132 37.776 280.844 37.656 283.964 37.008L284.204 38.664C280.988 39.264 278.228 39.408 273.452 39.408H271.652V37.776ZM271.652 29.88H281.852V31.512H273.644V38.664H271.652V29.88ZM280.916 41.544C285.428 41.544 288.212 43.08 288.212 45.696C288.212 48.336 285.428 49.848 280.916 49.848C276.428 49.848 273.644 48.336 273.644 45.696C273.644 43.08 276.428 41.544 280.916 41.544ZM280.916 43.128C277.628 43.128 275.636 44.088 275.636 45.696C275.636 47.304 277.628 48.288 280.916 48.288C284.228 48.288 286.22 47.304 286.22 45.696C286.22 44.088 284.228 43.128 280.916 43.128Z" fill="white"/>
<path d="M334.04 30.336H344V44.376H334.04V30.336ZM342.056 31.944H335.984V42.768H342.056V31.944ZM347.864 28.176H349.88V49.872H347.864V28.176ZM349.4 36.84H353.432V38.52H349.4V36.84ZM371.022 28.152H373.014V49.896H371.022V28.152ZM361.566 29.832C364.782 29.832 367.086 32.784 367.086 37.392C367.086 42.024 364.782 44.976 361.566 44.976C358.374 44.976 356.07 42.024 356.07 37.392C356.07 32.784 358.374 29.832 361.566 29.832ZM361.566 31.632C359.454 31.632 357.966 33.888 357.966 37.392C357.966 40.92 359.454 43.224 361.566 43.224C363.702 43.224 365.166 40.92 365.166 37.392C365.166 33.888 363.702 31.632 361.566 31.632ZM384.557 38.208H386.309C390.989 38.208 393.557 38.112 396.605 37.584L396.821 39.168C393.677 39.72 391.037 39.792 386.309 39.792H384.557V38.208ZM384.557 29.496H394.877V31.104H386.525V39.024H384.557V29.496ZM385.877 33.768H394.277V35.376H385.877V33.768ZM399.077 28.2H401.093V41.112H399.077V28.2ZM387.077 42.192H401.093V49.584H387.077V42.192ZM399.125 43.8H389.021V47.976H399.125V43.8Z" fill="white"/>
<path d="M446.2 45.432H465.856V47.088H446.2V45.432ZM447.904 30.336H464.008V31.968H447.904V30.336ZM447.952 39.504H463.984V41.136H447.952V39.504ZM451.288 31.848H453.28V39.672H451.288V31.848ZM458.68 31.848H460.648V39.672H458.68V31.848ZM468.278 45.552H487.934V47.208H468.278V45.552ZM477.062 40.896H479.054V46.248H477.062V40.896ZM470.654 29.784H485.51V36.36H472.694V40.704H470.726V34.752H483.542V31.392H470.654V29.784ZM470.726 39.864H486.014V41.496H470.726V39.864ZM499.308 33.768H503.268V35.4H499.308V33.768ZM502.548 28.632H504.42V41.256H502.548V28.632ZM494.844 31.032H496.404V32.808C496.404 36.168 494.652 39.504 491.46 40.92L490.428 39.384C493.212 38.184 494.844 35.4 494.844 32.808V31.032ZM495.18 31.032H496.74V32.784C496.74 35.184 498.3 37.752 500.988 38.88L499.98 40.416C496.836 39.096 495.18 35.928 495.18 32.784V31.032ZM490.836 29.928H500.484V31.56H490.836V29.928ZM506.724 28.176H508.62V41.424H506.724V28.176ZM494.076 42.384H508.62V49.872H506.652V44.016H494.076V42.384ZM514.954 39.864H529.858V41.472H514.954V39.864ZM512.434 45.432H532.09V47.088H512.434V45.432ZM514.954 30.024H529.618V31.656H516.97V40.368H514.954V30.024ZM516.322 34.872H529.162V36.456H516.322V34.872ZM541.618 29.856H551.218V31.488H541.618V29.856ZM544.882 34.704H546.85V40.128H544.882V34.704ZM550.426 29.856H552.394V31.008C552.394 32.424 552.394 34.584 551.818 37.44L549.874 37.224C550.426 34.368 550.426 32.4 550.426 31.008V29.856ZM555.346 28.176H557.338V44.52H555.346V28.176ZM556.426 35.232H560.434V36.888H556.426V35.232ZM543.634 47.76H558.034V49.392H543.634V47.76ZM543.634 43.008H545.602V48.264H543.634V43.008ZM540.514 41.064L540.298 39.432C544.162 39.432 549.49 39.336 553.882 38.736L554.026 40.176C549.514 40.968 544.33 41.064 540.514 41.064ZM578.336 28.152H580.328V49.896H578.336V28.152ZM563.792 43.008H565.592C569.216 43.008 572.456 42.864 576.296 42.24L576.512 43.872C572.576 44.52 569.312 44.664 565.592 44.664H563.792V43.008ZM563.744 30.192H573.776V37.944H565.784V43.632H563.792V36.312H571.76V31.824H563.744V30.192Z" fill="white"/>
<line x1="28" y1="32" x2="28" y2="48" stroke="url(#paint0_linear_377_4686)" stroke-width="4" stroke-linecap="round"/>
<line x1="38" y1="34" x2="38" y2="46" stroke="url(#paint1_linear_377_4686)" stroke-width="4" stroke-linecap="round"/>
<line x1="48" y1="36" x2="48" y2="44" stroke="url(#paint2_linear_377_4686)" stroke-width="4" stroke-linecap="round"/>
<mask id="path-9-outside-1_377_4686" maskUnits="userSpaceOnUse" x="56" y="30" width="67" height="20" fill="black">
<rect fill="white" x="56" y="30" width="67" height="20"/>
<path d="M63.3691 40.4805H58.9648L58.9434 39.3633H62.7354C63.5088 39.3633 64.1676 39.2523 64.7119 39.0303C65.2562 38.8083 65.668 38.4788 65.9473 38.042C66.2337 37.598 66.377 37.0537 66.377 36.4092C66.377 35.7503 66.2373 35.2061 65.958 34.7764C65.6787 34.3395 65.2598 34.0173 64.7012 33.8096C64.1426 33.6019 63.4408 33.498 62.5957 33.498H59.3086V48H57.9873V32.3594H62.5957C63.3906 32.3594 64.1032 32.4382 64.7334 32.5957C65.3636 32.7533 65.9007 33.0003 66.3447 33.3369C66.7887 33.6735 67.1253 34.0996 67.3545 34.6152C67.5908 35.1237 67.709 35.7324 67.709 36.4414C67.709 37.0859 67.5658 37.6696 67.2793 38.1924C66.9928 38.708 66.5882 39.1305 66.0654 39.46C65.5498 39.7822 64.9303 39.9827 64.207 40.0615L63.3691 40.4805ZM63.2725 48H58.5459L59.2227 46.8721H63.2725C64.0459 46.8721 64.7048 46.7432 65.249 46.4854C65.8005 46.2204 66.223 45.8444 66.5166 45.3574C66.8102 44.8704 66.957 44.2904 66.957 43.6172C66.957 43.0228 66.8281 42.4893 66.5703 42.0166C66.3125 41.5439 65.9186 41.1715 65.3887 40.8994C64.8587 40.6201 64.1855 40.4805 63.3691 40.4805H60.6299L60.6514 39.3633H64.5293L64.7656 39.7607C65.4674 39.8324 66.0798 40.0508 66.6025 40.416C67.1325 40.7741 67.5407 41.2288 67.8271 41.7803C68.1208 42.3317 68.2676 42.9368 68.2676 43.5957C68.2676 44.541 68.0563 45.3431 67.6338 46.002C67.2184 46.6536 66.6348 47.1514 65.8828 47.4951C65.138 47.8317 64.2679 48 63.2725 48ZM78.623 45.3145V36.377H79.9121V48H78.6768L78.623 45.3145ZM78.8594 43.166L79.5254 43.1445C79.5254 43.875 79.4395 44.5482 79.2676 45.1641C79.0957 45.7799 78.8271 46.3171 78.4619 46.7754C78.0967 47.2337 77.624 47.5882 77.0439 47.8389C76.4639 48.0895 75.7656 48.2148 74.9492 48.2148C74.3835 48.2148 73.8643 48.1361 73.3916 47.9785C72.9261 47.8138 72.5251 47.556 72.1885 47.2051C71.8519 46.8542 71.5905 46.3994 71.4043 45.8408C71.2253 45.2822 71.1357 44.6055 71.1357 43.8105V36.377H72.4141V43.832C72.4141 44.4551 72.4821 44.9743 72.6182 45.3896C72.7614 45.805 72.9548 46.138 73.1982 46.3887C73.4489 46.6393 73.7354 46.8184 74.0576 46.9258C74.3799 47.0332 74.7272 47.0869 75.0996 47.0869C76.0449 47.0869 76.7897 46.9043 77.334 46.5391C77.8854 46.1738 78.2757 45.694 78.5049 45.0996C78.7412 44.498 78.8594 43.8535 78.8594 43.166ZM84.7031 36.377V48H83.4248V36.377H84.7031ZM83.1992 33.0146C83.1992 32.7712 83.2744 32.5671 83.4248 32.4023C83.5824 32.2305 83.7972 32.1445 84.0693 32.1445C84.3415 32.1445 84.5563 32.2305 84.7139 32.4023C84.8786 32.5671 84.9609 32.7712 84.9609 33.0146C84.9609 33.251 84.8786 33.4551 84.7139 33.627C84.5563 33.7917 84.3415 33.874 84.0693 33.874C83.7972 33.874 83.5824 33.7917 83.4248 33.627C83.2744 33.4551 83.1992 33.251 83.1992 33.0146ZM89.6445 31.5V48H88.3662V31.5H89.6445ZM97.5508 36.377V37.4297H91.7285V36.377H97.5508ZM93.8662 33.3906H95.1445V45.1748C95.1445 45.7119 95.2161 46.1165 95.3594 46.3887C95.5026 46.6608 95.6888 46.8434 95.918 46.9365C96.1471 47.0296 96.3942 47.0762 96.6592 47.0762C96.8525 47.0762 97.0387 47.0654 97.2178 47.0439C97.3968 47.0153 97.5579 46.9867 97.7012 46.958L97.7549 48.043C97.5973 48.0931 97.3932 48.1325 97.1426 48.1611C96.8919 48.1969 96.6413 48.2148 96.3906 48.2148C95.8965 48.2148 95.4596 48.1253 95.0801 47.9463C94.7005 47.7601 94.4033 47.445 94.1885 47.001C93.9736 46.5498 93.8662 45.9375 93.8662 45.1641V33.3906ZM104.243 40.5449V41.6514H99.0977V40.5449H104.243ZM108.476 32.3594V48H107.154V32.3594H108.476ZM113.707 38.8584V48H112.429V36.377H113.653L113.707 38.8584ZM113.417 41.4688L112.848 41.1465C112.891 40.459 113.03 39.8145 113.267 39.2129C113.503 38.6113 113.822 38.0814 114.223 37.623C114.631 37.1647 115.107 36.8066 115.651 36.5488C116.203 36.291 116.812 36.1621 117.478 36.1621C118.058 36.1621 118.577 36.2409 119.035 36.3984C119.493 36.556 119.884 36.8066 120.206 37.1504C120.528 37.4941 120.772 37.9346 120.937 38.4717C121.108 39.0088 121.194 39.6641 121.194 40.4375V48H119.905V40.4268C119.905 39.6247 119.794 38.998 119.572 38.5469C119.35 38.0885 119.035 37.7627 118.627 37.5693C118.219 37.376 117.735 37.2793 117.177 37.2793C116.561 37.2793 116.02 37.4154 115.555 37.6875C115.096 37.9525 114.71 38.2998 114.395 38.7295C114.087 39.152 113.85 39.6068 113.686 40.0938C113.521 40.5736 113.431 41.0319 113.417 41.4688Z"/>
</mask>
<path d="M63.3691 40.4805H58.9648L58.9434 39.3633H62.7354C63.5088 39.3633 64.1676 39.2523 64.7119 39.0303C65.2562 38.8083 65.668 38.4788 65.9473 38.042C66.2337 37.598 66.377 37.0537 66.377 36.4092C66.377 35.7503 66.2373 35.2061 65.958 34.7764C65.6787 34.3395 65.2598 34.0173 64.7012 33.8096C64.1426 33.6019 63.4408 33.498 62.5957 33.498H59.3086V48H57.9873V32.3594H62.5957C63.3906 32.3594 64.1032 32.4382 64.7334 32.5957C65.3636 32.7533 65.9007 33.0003 66.3447 33.3369C66.7887 33.6735 67.1253 34.0996 67.3545 34.6152C67.5908 35.1237 67.709 35.7324 67.709 36.4414C67.709 37.0859 67.5658 37.6696 67.2793 38.1924C66.9928 38.708 66.5882 39.1305 66.0654 39.46C65.5498 39.7822 64.9303 39.9827 64.207 40.0615L63.3691 40.4805ZM63.2725 48H58.5459L59.2227 46.8721H63.2725C64.0459 46.8721 64.7048 46.7432 65.249 46.4854C65.8005 46.2204 66.223 45.8444 66.5166 45.3574C66.8102 44.8704 66.957 44.2904 66.957 43.6172C66.957 43.0228 66.8281 42.4893 66.5703 42.0166C66.3125 41.5439 65.9186 41.1715 65.3887 40.8994C64.8587 40.6201 64.1855 40.4805 63.3691 40.4805H60.6299L60.6514 39.3633H64.5293L64.7656 39.7607C65.4674 39.8324 66.0798 40.0508 66.6025 40.416C67.1325 40.7741 67.5407 41.2288 67.8271 41.7803C68.1208 42.3317 68.2676 42.9368 68.2676 43.5957C68.2676 44.541 68.0563 45.3431 67.6338 46.002C67.2184 46.6536 66.6348 47.1514 65.8828 47.4951C65.138 47.8317 64.2679 48 63.2725 48ZM78.623 45.3145V36.377H79.9121V48H78.6768L78.623 45.3145ZM78.8594 43.166L79.5254 43.1445C79.5254 43.875 79.4395 44.5482 79.2676 45.1641C79.0957 45.7799 78.8271 46.3171 78.4619 46.7754C78.0967 47.2337 77.624 47.5882 77.0439 47.8389C76.4639 48.0895 75.7656 48.2148 74.9492 48.2148C74.3835 48.2148 73.8643 48.1361 73.3916 47.9785C72.9261 47.8138 72.5251 47.556 72.1885 47.2051C71.8519 46.8542 71.5905 46.3994 71.4043 45.8408C71.2253 45.2822 71.1357 44.6055 71.1357 43.8105V36.377H72.4141V43.832C72.4141 44.4551 72.4821 44.9743 72.6182 45.3896C72.7614 45.805 72.9548 46.138 73.1982 46.3887C73.4489 46.6393 73.7354 46.8184 74.0576 46.9258C74.3799 47.0332 74.7272 47.0869 75.0996 47.0869C76.0449 47.0869 76.7897 46.9043 77.334 46.5391C77.8854 46.1738 78.2757 45.694 78.5049 45.0996C78.7412 44.498 78.8594 43.8535 78.8594 43.166ZM84.7031 36.377V48H83.4248V36.377H84.7031ZM83.1992 33.0146C83.1992 32.7712 83.2744 32.5671 83.4248 32.4023C83.5824 32.2305 83.7972 32.1445 84.0693 32.1445C84.3415 32.1445 84.5563 32.2305 84.7139 32.4023C84.8786 32.5671 84.9609 32.7712 84.9609 33.0146C84.9609 33.251 84.8786 33.4551 84.7139 33.627C84.5563 33.7917 84.3415 33.874 84.0693 33.874C83.7972 33.874 83.5824 33.7917 83.4248 33.627C83.2744 33.4551 83.1992 33.251 83.1992 33.0146ZM89.6445 31.5V48H88.3662V31.5H89.6445ZM97.5508 36.377V37.4297H91.7285V36.377H97.5508ZM93.8662 33.3906H95.1445V45.1748C95.1445 45.7119 95.2161 46.1165 95.3594 46.3887C95.5026 46.6608 95.6888 46.8434 95.918 46.9365C96.1471 47.0296 96.3942 47.0762 96.6592 47.0762C96.8525 47.0762 97.0387 47.0654 97.2178 47.0439C97.3968 47.0153 97.5579 46.9867 97.7012 46.958L97.7549 48.043C97.5973 48.0931 97.3932 48.1325 97.1426 48.1611C96.8919 48.1969 96.6413 48.2148 96.3906 48.2148C95.8965 48.2148 95.4596 48.1253 95.0801 47.9463C94.7005 47.7601 94.4033 47.445 94.1885 47.001C93.9736 46.5498 93.8662 45.9375 93.8662 45.1641V33.3906ZM104.243 40.5449V41.6514H99.0977V40.5449H104.243ZM108.476 32.3594V48H107.154V32.3594H108.476ZM113.707 38.8584V48H112.429V36.377H113.653L113.707 38.8584ZM113.417 41.4688L112.848 41.1465C112.891 40.459 113.03 39.8145 113.267 39.2129C113.503 38.6113 113.822 38.0814 114.223 37.623C114.631 37.1647 115.107 36.8066 115.651 36.5488C116.203 36.291 116.812 36.1621 117.478 36.1621C118.058 36.1621 118.577 36.2409 119.035 36.3984C119.493 36.556 119.884 36.8066 120.206 37.1504C120.528 37.4941 120.772 37.9346 120.937 38.4717C121.108 39.0088 121.194 39.6641 121.194 40.4375V48H119.905V40.4268C119.905 39.6247 119.794 38.998 119.572 38.5469C119.35 38.0885 119.035 37.7627 118.627 37.5693C118.219 37.376 117.735 37.2793 117.177 37.2793C116.561 37.2793 116.02 37.4154 115.555 37.6875C115.096 37.9525 114.71 38.2998 114.395 38.7295C114.087 39.152 113.85 39.6068 113.686 40.0938C113.521 40.5736 113.431 41.0319 113.417 41.4688Z" fill="white"/>
<path d="M63.3691 40.4805V41.4805H63.6052L63.8164 41.3749L63.3691 40.4805ZM58.9648 40.4805L57.965 40.4997L57.9839 41.4805H58.9648V40.4805ZM58.9434 39.3633V38.3633H57.9239L57.9435 39.3825L58.9434 39.3633ZM65.9473 38.042L65.107 37.4999L65.1047 37.5033L65.9473 38.042ZM65.958 34.7764L65.1155 35.315L65.1196 35.3214L65.958 34.7764ZM59.3086 33.498V32.498H58.3086V33.498H59.3086ZM59.3086 48V49H60.3086V48H59.3086ZM57.9873 48H56.9873V49H57.9873V48ZM57.9873 32.3594V31.3594H56.9873V32.3594H57.9873ZM67.3545 34.6152L66.4407 35.0214L66.4441 35.0291L66.4477 35.0367L67.3545 34.6152ZM67.2793 38.1924L68.1535 38.678L68.1563 38.6729L67.2793 38.1924ZM66.0654 39.46L66.5954 40.308L66.5986 40.306L66.0654 39.46ZM64.207 40.0615L64.0988 39.0674L63.9203 39.0868L63.7598 39.1671L64.207 40.0615ZM58.5459 48L57.6884 47.4855L56.7797 49H58.5459V48ZM59.2227 46.8721V45.8721H58.6565L58.3652 46.3576L59.2227 46.8721ZM65.249 46.4854L65.6771 47.3891L65.6821 47.3867L65.249 46.4854ZM66.5166 45.3574L65.6602 44.8411L66.5166 45.3574ZM65.3887 40.8994L64.9224 41.7841L64.9319 41.789L65.3887 40.8994ZM60.6299 40.4805L59.6301 40.4612L59.6105 41.4805H60.6299V40.4805ZM60.6514 39.3633V38.3633H59.6704L59.6516 39.3441L60.6514 39.3633ZM64.5293 39.3633L65.3888 38.8522L65.0981 38.3633H64.5293V39.3633ZM64.7656 39.7607L63.9061 40.2718L64.1633 40.7045L64.6641 40.7556L64.7656 39.7607ZM66.6025 40.416L66.0298 41.2358L66.0362 41.2402L66.0427 41.2446L66.6025 40.416ZM67.8271 41.7803L66.9397 42.2413L66.9445 42.2503L67.8271 41.7803ZM67.6338 46.002L66.792 45.4621L66.7905 45.4645L67.6338 46.002ZM65.8828 47.4951L66.2946 48.4064L66.2986 48.4046L65.8828 47.4951ZM63.3691 39.4805H58.9648V41.4805H63.3691V39.4805ZM59.9647 40.4612L59.9432 39.3441L57.9435 39.3825L57.965 40.4997L59.9647 40.4612ZM58.9434 40.3633H62.7354V38.3633H58.9434V40.3633ZM62.7354 40.3633C63.5995 40.3633 64.3941 40.2399 65.0896 39.9562L64.3342 38.1043C63.9412 38.2646 63.4181 38.3633 62.7354 38.3633V40.3633ZM65.0896 39.9562C65.7985 39.667 66.3847 39.2142 66.7898 38.5807L65.1047 37.5033C64.9512 37.7435 64.7138 37.9495 64.3342 38.1043L65.0896 39.9562ZM66.7876 38.5841C67.1992 37.9461 67.377 37.2035 67.377 36.4092H65.377C65.377 36.9039 65.2683 37.2498 65.107 37.4999L66.7876 38.5841ZM67.377 36.4092C67.377 35.6116 67.2075 34.8637 66.7965 34.2314L65.1196 35.3214C65.2671 35.5484 65.377 35.8891 65.377 36.4092H67.377ZM66.8005 34.2377C66.3872 33.5913 65.7801 33.1438 65.0497 32.8723L64.3527 34.7469C64.7394 34.8907 64.9702 35.0878 65.1155 35.315L66.8005 34.2377ZM65.0497 32.8723C64.3435 32.6097 63.514 32.498 62.5957 32.498V34.498C63.3675 34.498 63.9417 34.5941 64.3527 34.7469L65.0497 32.8723ZM62.5957 32.498H59.3086V34.498H62.5957V32.498ZM58.3086 33.498V48H60.3086V33.498H58.3086ZM59.3086 47H57.9873V49H59.3086V47ZM58.9873 48V32.3594H56.9873V48H58.9873ZM57.9873 33.3594H62.5957V31.3594H57.9873V33.3594ZM62.5957 33.3594C63.3263 33.3594 63.9553 33.432 64.4909 33.5658L64.9759 31.6256C64.2511 31.4443 63.4549 31.3594 62.5957 31.3594V33.3594ZM64.4909 33.5658C65.0116 33.696 65.4205 33.8912 65.7406 34.1338L66.9488 32.54C66.3809 32.1095 65.7156 31.8105 64.9759 31.6256L64.4909 33.5658ZM65.7406 34.1338C66.0483 34.367 66.2792 34.658 66.4407 35.0214L68.2683 34.2091C67.9715 33.5412 67.5292 32.98 66.9488 32.54L65.7406 34.1338ZM66.4477 35.0367C66.6086 35.3831 66.709 35.8407 66.709 36.4414H68.709C68.709 35.6241 68.573 34.8643 68.2613 34.1937L66.4477 35.0367ZM66.709 36.4414C66.709 36.932 66.6016 37.3482 66.4023 37.7118L68.1563 38.6729C68.5299 37.991 68.709 37.2399 68.709 36.4414H66.709ZM66.4051 37.7067C66.2042 38.0684 65.92 38.3697 65.5323 38.6139L66.5986 40.306C67.2565 39.8914 67.7815 39.3476 68.1535 38.678L66.4051 37.7067ZM65.5354 38.612C65.1703 38.8402 64.7014 39.0018 64.0988 39.0674L64.3153 41.0556C65.1593 40.9637 65.9293 40.7243 66.5954 40.308L65.5354 38.612ZM63.7598 39.1671L62.9219 39.586L63.8164 41.3749L64.6542 40.956L63.7598 39.1671ZM63.2725 47H58.5459V49H63.2725V47ZM59.4034 48.5145L60.0801 47.3866L58.3652 46.3576L57.6884 47.4855L59.4034 48.5145ZM59.2227 47.8721H63.2725V45.8721H59.2227V47.8721ZM63.2725 47.8721C64.1534 47.8721 64.9666 47.7256 65.6771 47.3891L64.8209 45.5816C64.4429 45.7607 63.9384 45.8721 63.2725 45.8721V47.8721ZM65.6821 47.3867C66.3952 47.044 66.9711 46.5403 67.373 45.8738L65.6602 44.8411C65.4749 45.1485 65.2057 45.3967 64.8159 45.584L65.6821 47.3867ZM67.373 45.8738C67.7766 45.2044 67.957 44.4386 67.957 43.6172H65.957C65.957 44.1421 65.8439 44.5365 65.6602 44.8411L67.373 45.8738ZM67.957 43.6172C67.957 42.8732 67.7942 42.1721 67.4482 41.5377L65.6924 42.4955C65.862 42.8064 65.957 43.1723 65.957 43.6172H67.957ZM67.4482 41.5377C67.0843 40.8705 66.534 40.3634 65.8455 40.0098L64.9319 41.789C65.3032 41.9797 65.5407 42.2174 65.6924 42.4955L67.4482 41.5377ZM65.8549 40.0148C65.1386 39.6373 64.2919 39.4805 63.3691 39.4805V41.4805C64.0792 41.4805 64.5788 41.603 64.9224 41.7841L65.8549 40.0148ZM63.3691 39.4805H60.6299V41.4805H63.3691V39.4805ZM61.6297 40.4997L61.6512 39.3825L59.6516 39.3441L59.6301 40.4612L61.6297 40.4997ZM60.6514 40.3633H64.5293V38.3633H60.6514V40.3633ZM63.6698 39.8744L63.9061 40.2718L65.6252 39.2497L65.3888 38.8522L63.6698 39.8744ZM64.6641 40.7556C65.2149 40.8118 65.6611 40.9781 66.0298 41.2358L67.1752 39.5963C66.4985 39.1234 65.72 38.8529 64.8671 38.7659L64.6641 40.7556ZM66.0427 41.2446C66.4387 41.5122 66.7324 41.8422 66.9397 42.2413L68.7146 41.3193C68.349 40.6155 67.8263 40.036 67.1624 39.5874L66.0427 41.2446ZM66.9445 42.2503C67.1568 42.6491 67.2676 43.0915 67.2676 43.5957H69.2676C69.2676 42.7822 69.0847 42.0143 68.7098 41.3103L66.9445 42.2503ZM67.2676 43.5957C67.2676 44.3897 67.0915 44.9951 66.792 45.4621L68.4756 46.5418C69.0211 45.6911 69.2676 44.6923 69.2676 43.5957H67.2676ZM66.7905 45.4645C66.4861 45.942 66.0564 46.3162 65.4671 46.5856L66.2986 48.4046C67.2131 47.9865 67.9507 47.3652 68.4771 46.5394L66.7905 45.4645ZM65.471 46.5839C64.8806 46.8506 64.1562 47 63.2725 47V49C64.3796 49 65.3954 48.8128 66.2946 48.4064L65.471 46.5839ZM78.623 45.3145H77.623V45.3245L77.6232 45.3344L78.623 45.3145ZM78.623 36.377V35.377H77.623V36.377H78.623ZM79.9121 36.377H80.9121V35.377H79.9121V36.377ZM79.9121 48V49H80.9121V48H79.9121ZM78.6768 48L77.677 48.02L77.6966 49H78.6768V48ZM78.8594 43.166L78.8271 42.1665L77.8594 42.1978V43.166H78.8594ZM79.5254 43.1445H80.5254V42.1118L79.4931 42.1451L79.5254 43.1445ZM79.2676 45.1641L78.3044 44.8953L79.2676 45.1641ZM73.3916 47.9785L73.058 48.9212L73.0667 48.9243L73.0754 48.9272L73.3916 47.9785ZM71.4043 45.8408L70.452 46.1461L70.4556 46.157L71.4043 45.8408ZM71.1357 36.377V35.377H70.1357V36.377H71.1357ZM72.4141 36.377H73.4141V35.377H72.4141V36.377ZM72.6182 45.3896L71.6679 45.701L71.6703 45.7083L71.6728 45.7156L72.6182 45.3896ZM73.1982 46.3887L72.481 47.0855L72.486 47.0907L72.4911 47.0958L73.1982 46.3887ZM77.334 46.5391L76.7818 45.7053L76.7768 45.7087L77.334 46.5391ZM78.5049 45.0996L77.5741 44.7339L77.5718 44.7399L78.5049 45.0996ZM79.623 45.3145V36.377H77.623V45.3145H79.623ZM78.623 37.377H79.9121V35.377H78.623V37.377ZM78.9121 36.377V48H80.9121V36.377H78.9121ZM79.9121 47H78.6768V49H79.9121V47ZM79.6766 47.98L79.6228 45.2945L77.6232 45.3344L77.677 48.02L79.6766 47.98ZM78.8916 44.1655L79.5576 44.144L79.4931 42.1451L78.8271 42.1665L78.8916 44.1655ZM78.5254 43.1445C78.5254 43.7968 78.4487 44.3783 78.3044 44.8953L80.2308 45.4329C80.4303 44.7181 80.5254 43.9532 80.5254 43.1445H78.5254ZM78.3044 44.8953C78.1652 45.3939 77.9542 45.8079 77.6799 46.1522L79.244 47.3986C79.7001 46.8263 80.0262 46.166 80.2308 45.4329L78.3044 44.8953ZM77.6799 46.1522C77.4249 46.4722 77.0888 46.7301 76.6473 46.9209L77.4406 48.7568C78.1593 48.4463 78.7685 47.9953 79.244 47.3986L77.6799 46.1522ZM76.6473 46.9209C76.2233 47.1041 75.6673 47.2148 74.9492 47.2148V49.2148C75.8639 49.2148 76.7045 49.0749 77.4406 48.7568L76.6473 46.9209ZM74.9492 47.2148C74.4766 47.2148 74.0657 47.1491 73.7078 47.0298L73.0754 48.9272C73.6628 49.123 74.2903 49.2148 74.9492 49.2148V47.2148ZM73.7252 47.0358C73.4045 46.9223 73.137 46.7493 72.9102 46.5129L71.4668 47.8973C71.9132 48.3627 72.4478 48.7053 73.058 48.9212L73.7252 47.0358ZM72.9102 46.5129C72.6955 46.2891 72.502 45.9717 72.353 45.5246L70.4556 46.157C70.679 46.8271 71.0083 47.4193 71.4668 47.8973L72.9102 46.5129ZM72.3566 45.5356C72.2181 45.1037 72.1357 44.5361 72.1357 43.8105H70.1357C70.1357 44.6749 70.2324 45.4608 70.452 46.146L72.3566 45.5356ZM72.1357 43.8105V36.377H70.1357V43.8105H72.1357ZM71.1357 37.377H72.4141V35.377H71.1357V37.377ZM71.4141 36.377V43.832H73.4141V36.377H71.4141ZM71.4141 43.832C71.4141 44.5197 71.4881 45.1523 71.6679 45.701L73.5685 45.0783C73.4761 44.7962 73.4141 44.3904 73.4141 43.832H71.4141ZM71.6728 45.7156C71.8519 46.2352 72.1123 46.706 72.481 47.0855L73.9155 45.6919C73.7972 45.5701 73.6708 45.3749 73.5635 45.0637L71.6728 45.7156ZM72.4911 47.0958C72.8466 47.4513 73.2654 47.7158 73.7414 47.8745L74.3738 45.9771C74.2053 45.9209 74.0511 45.8274 73.9053 45.6816L72.4911 47.0958ZM73.7414 47.8745C74.175 48.019 74.63 48.0869 75.0996 48.0869V46.0869C74.8244 46.0869 74.5848 46.0474 74.3738 45.9771L73.7414 47.8745ZM75.0996 48.0869C76.1597 48.0869 77.1242 47.8841 77.8912 47.3694L76.7768 45.7087C76.4552 45.9245 75.9301 46.0869 75.0996 46.0869V48.0869ZM77.8862 47.3728C78.6036 46.8976 79.1311 46.2552 79.4379 45.4593L77.5718 44.7399C77.4203 45.1328 77.1672 45.4501 76.7818 45.7054L77.8862 47.3728ZM79.4356 45.4653C79.7206 44.74 79.8594 43.9706 79.8594 43.166H77.8594C77.8594 43.7364 77.7618 44.2561 77.5741 44.734L79.4356 45.4653ZM84.7031 36.377H85.7031V35.377H84.7031V36.377ZM84.7031 48V49H85.7031V48H84.7031ZM83.4248 48H82.4248V49H83.4248V48ZM83.4248 36.377V35.377H82.4248V36.377H83.4248ZM83.4248 32.4023L82.6876 31.7266L82.6863 31.7281L83.4248 32.4023ZM84.7139 32.4023L83.9767 33.0781L83.9914 33.0941L84.0068 33.1095L84.7139 32.4023ZM84.7139 33.627L83.9919 32.935L83.9912 32.9357L84.7139 33.627ZM83.4248 33.627L82.6722 34.2855L82.6868 34.3021L82.7022 34.3182L83.4248 33.627ZM83.7031 36.377V48H85.7031V36.377H83.7031ZM84.7031 47H83.4248V49H84.7031V47ZM84.4248 48V36.377H82.4248V48H84.4248ZM83.4248 37.377H84.7031V35.377H83.4248V37.377ZM84.1992 33.0146C84.1992 32.9969 84.2017 33.0036 84.194 33.0247C84.1903 33.0346 84.1853 33.045 84.1792 33.055C84.1731 33.065 84.1673 33.0722 84.1633 33.0766L82.6863 31.7281C82.3517 32.0946 82.1992 32.5465 82.1992 33.0146H84.1992ZM84.162 33.0781C84.1525 33.0884 84.1394 33.1003 84.1229 33.1117C84.1064 33.1232 84.09 33.1317 84.0755 33.1375C84.0459 33.1493 84.0385 33.1445 84.0693 33.1445V31.1445C83.5682 31.1445 83.0667 31.3131 82.6877 31.7266L84.162 33.0781ZM84.0693 33.1445C84.1002 33.1445 84.0927 33.1493 84.0632 33.1375C84.0487 33.1317 84.0323 33.1232 84.0158 33.1117C83.9992 33.1003 83.9862 33.0884 83.9767 33.0781L85.451 31.7266C85.072 31.3131 84.5705 31.1445 84.0693 31.1445V33.1445ZM84.0068 33.1095C83.9997 33.1024 83.9838 33.0829 83.9718 33.0531C83.9602 33.0242 83.9609 33.0075 83.9609 33.0146H85.9609C85.9609 32.5193 85.7825 32.0567 85.421 31.6952L84.0068 33.1095ZM83.9609 33.0146C83.9609 33.0154 83.9609 33.0108 83.9625 33.002C83.9642 32.9931 83.9672 32.9823 83.9718 32.9708C83.982 32.9455 83.9934 32.9334 83.9919 32.935L85.4359 34.3189C85.7775 33.9623 85.9609 33.5109 85.9609 33.0146H83.9609ZM83.9912 32.9357C84.002 32.9245 84.0158 32.9126 84.0321 32.9018C84.0484 32.8909 84.0639 32.8834 84.0766 32.8785C84.1023 32.8687 84.1049 32.874 84.0693 32.874V34.874C84.5573 34.874 85.0541 34.7179 85.4365 34.3182L83.9912 32.9357ZM84.0693 32.874C84.0337 32.874 84.0364 32.8687 84.062 32.8785C84.0747 32.8834 84.0902 32.8909 84.1066 32.9018C84.1229 32.9126 84.1367 32.9245 84.1474 32.9357L82.7022 34.3182C83.0845 34.7179 83.5814 34.874 84.0693 34.874V32.874ZM84.1774 32.9684C84.1773 32.9684 84.1799 32.9714 84.1836 32.9775C84.1873 32.9837 84.191 32.9912 84.194 32.9993C84.1969 33.0073 84.1984 33.0138 84.1991 33.0176C84.1997 33.0212 84.1992 33.0206 84.1992 33.0146H82.1992C82.1992 33.484 82.3564 33.9245 82.6722 34.2855L84.1774 32.9684ZM89.6445 31.5H90.6445V30.5H89.6445V31.5ZM89.6445 48V49H90.6445V48H89.6445ZM88.3662 48H87.3662V49H88.3662V48ZM88.3662 31.5V30.5H87.3662V31.5H88.3662ZM88.6445 31.5V48H90.6445V31.5H88.6445ZM89.6445 47H88.3662V49H89.6445V47ZM89.3662 48V31.5H87.3662V48H89.3662ZM88.3662 32.5H89.6445V30.5H88.3662V32.5ZM97.5508 36.377H98.5508V35.377H97.5508V36.377ZM97.5508 37.4297V38.4297H98.5508V37.4297H97.5508ZM91.7285 37.4297H90.7285V38.4297H91.7285V37.4297ZM91.7285 36.377V35.377H90.7285V36.377H91.7285ZM93.8662 33.3906V32.3906H92.8662V33.3906H93.8662ZM95.1445 33.3906H96.1445V32.3906H95.1445V33.3906ZM95.918 46.9365L95.5416 47.863L95.918 46.9365ZM97.2178 47.0439L97.3369 48.0368L97.3564 48.0345L97.3758 48.0314L97.2178 47.0439ZM97.7012 46.958L98.6999 46.9086L98.6426 45.7499L97.5051 45.9774L97.7012 46.958ZM97.7549 48.043L98.0581 48.9959L98.7917 48.7625L98.7537 47.9935L97.7549 48.043ZM97.1426 48.1611L97.029 47.1676L97.0151 47.1692L97.0012 47.1712L97.1426 48.1611ZM95.0801 47.9463L94.6397 48.8441L94.6465 48.8475L94.6535 48.8507L95.0801 47.9463ZM94.1885 47.001L93.2856 47.4309L93.2883 47.4365L94.1885 47.001ZM96.5508 36.377V37.4297H98.5508V36.377H96.5508ZM97.5508 36.4297H91.7285V38.4297H97.5508V36.4297ZM92.7285 37.4297V36.377H90.7285V37.4297H92.7285ZM91.7285 37.377H97.5508V35.377H91.7285V37.377ZM93.8662 34.3906H95.1445V32.3906H93.8662V34.3906ZM94.1445 33.3906V45.1748H96.1445V33.3906H94.1445ZM94.1445 45.1748C94.1445 45.7697 94.2186 46.3683 94.4745 46.8544L96.2443 45.9229C96.2137 45.8648 96.1445 45.6542 96.1445 45.1748H94.1445ZM94.4745 46.8544C94.7 47.2829 95.0446 47.6611 95.5416 47.863L96.2943 46.0101C96.307 46.0152 96.3118 46.0209 96.3067 46.0158C96.2995 46.0088 96.276 45.9832 96.2443 45.9229L94.4745 46.8544ZM95.5416 47.863C95.8986 48.008 96.2745 48.0762 96.6592 48.0762V46.0762C96.5139 46.0762 96.3957 46.0512 96.2943 46.0101L95.5416 47.863ZM96.6592 48.0762C96.8895 48.0762 97.1156 48.0634 97.3369 48.0368L97.0986 46.0511C96.9618 46.0675 96.8156 46.0762 96.6592 46.0762V48.0762ZM97.3758 48.0314C97.5647 48.0012 97.7388 47.9703 97.8973 47.9386L97.5051 45.9774C97.3771 46.003 97.229 46.0294 97.0598 46.0565L97.3758 48.0314ZM96.7024 47.0075L96.7561 48.0924L98.7537 47.9935L98.6999 46.9086L96.7024 47.0075ZM97.4517 47.09C97.3791 47.1131 97.2451 47.1429 97.029 47.1676L97.2561 49.1547C97.5414 49.1221 97.8156 49.0731 98.0581 48.9959L97.4517 47.09ZM97.0012 47.1712C96.7969 47.2004 96.5935 47.2148 96.3906 47.2148V49.2148C96.6891 49.2148 96.987 49.1935 97.284 49.1511L97.0012 47.1712ZM96.3906 47.2148C96.018 47.2148 95.7312 47.1478 95.5067 47.0419L94.6535 48.8507C95.1881 49.1029 95.7749 49.2148 96.3906 49.2148V47.2148ZM95.5205 47.0485C95.3738 46.9765 95.2231 46.8433 95.0886 46.5654L93.2883 47.4365C93.5836 48.0467 94.0272 48.5436 94.6397 48.8441L95.5205 47.0485ZM95.0913 46.571C94.9659 46.3076 94.8662 45.8622 94.8662 45.1641H92.8662C92.8662 46.0128 92.9814 46.792 93.2856 47.4309L95.0913 46.571ZM94.8662 45.1641V33.3906H92.8662V45.1641H94.8662ZM104.243 40.5449H105.243V39.5449H104.243V40.5449ZM104.243 41.6514V42.6514H105.243V41.6514H104.243ZM99.0977 41.6514H98.0977V42.6514H99.0977V41.6514ZM99.0977 40.5449V39.5449H98.0977V40.5449H99.0977ZM103.243 40.5449V41.6514H105.243V40.5449H103.243ZM104.243 40.6514H99.0977V42.6514H104.243V40.6514ZM100.098 41.6514V40.5449H98.0977V41.6514H100.098ZM99.0977 41.5449H104.243V39.5449H99.0977V41.5449ZM108.476 32.3594H109.476V31.3594H108.476V32.3594ZM108.476 48V49H109.476V48H108.476ZM107.154 48H106.154V49H107.154V48ZM107.154 32.3594V31.3594H106.154V32.3594H107.154ZM107.476 32.3594V48H109.476V32.3594H107.476ZM108.476 47H107.154V49H108.476V47ZM108.154 48V32.3594H106.154V48H108.154ZM107.154 33.3594H108.476V31.3594H107.154V33.3594ZM113.707 38.8584H114.707V38.8476L114.707 38.8368L113.707 38.8584ZM113.707 48V49H114.707V48H113.707ZM112.429 48H111.429V49H112.429V48ZM112.429 36.377V35.377H111.429V36.377H112.429ZM113.653 36.377L114.653 36.3553L114.632 35.377H113.653V36.377ZM113.417 41.4688L112.924 42.339L114.362 43.1529L114.416 41.5015L113.417 41.4688ZM112.848 41.1465L111.85 41.0841L111.811 41.7085L112.355 42.0167L112.848 41.1465ZM114.223 37.623L113.476 36.9579L113.47 36.9645L114.223 37.623ZM115.651 36.5488L115.228 35.6429L115.223 35.6451L115.651 36.5488ZM120.937 38.4717L119.98 38.7649L119.984 38.7765L120.937 38.4717ZM121.194 48V49H122.194V48H121.194ZM119.905 48H118.905V49H119.905V48ZM119.572 38.5469L118.672 38.9828L118.675 38.9884L119.572 38.5469ZM115.555 37.6875L116.055 38.5532L116.059 38.5508L115.555 37.6875ZM114.395 38.7295L113.588 38.1381L113.586 38.1405L114.395 38.7295ZM113.686 40.0938L114.631 40.4184L114.633 40.4142L113.686 40.0938ZM112.707 38.8584V48H114.707V38.8584H112.707ZM113.707 47H112.429V49H113.707V47ZM113.429 48V36.377H111.429V48H113.429ZM112.429 37.377H113.653V35.377H112.429V37.377ZM112.654 36.3986L112.707 38.88L114.707 38.8368L114.653 36.3553L112.654 36.3986ZM113.91 40.5985L113.34 40.2762L112.355 42.0167L112.924 42.339L113.91 40.5985ZM113.846 41.2089C113.883 40.6185 114.002 40.0769 114.197 39.5785L112.336 38.8472C112.059 39.552 111.899 40.2995 111.85 41.0841L113.846 41.2089ZM114.197 39.5785C114.394 39.0775 114.655 38.6481 114.975 38.2816L113.47 36.9645C112.989 37.5147 112.612 38.1451 112.336 38.8472L114.197 39.5785ZM114.969 38.2881C115.29 37.9279 115.659 37.6519 116.079 37.4526L115.223 35.6451C114.556 35.9614 113.972 36.4015 113.476 36.958L114.969 38.2881ZM116.075 37.4547C116.482 37.2645 116.944 37.1621 117.478 37.1621V35.1621C116.679 35.1621 115.924 35.3175 115.228 35.6429L116.075 37.4547ZM117.478 37.1621C117.968 37.1621 118.375 37.2288 118.71 37.3441L119.36 35.4528C118.779 35.253 118.147 35.1621 117.478 35.1621V37.1621ZM118.71 37.3441C119.019 37.4503 119.269 37.613 119.477 37.8343L120.936 36.4664C120.499 36.0003 119.968 35.6617 119.36 35.4528L118.71 37.3441ZM119.477 37.8343C119.676 38.0474 119.852 38.3458 119.98 38.7649L121.893 38.1785C121.692 37.5233 121.38 36.9409 120.936 36.4664L119.477 37.8343ZM119.984 38.7765C120.115 39.1861 120.194 39.7319 120.194 40.4375H122.194C122.194 39.5962 122.102 38.8315 121.889 38.1669L119.984 38.7765ZM120.194 40.4375V48H122.194V40.4375H120.194ZM121.194 47H119.905V49H121.194V47ZM120.905 48V40.4268H118.905V48H120.905ZM120.905 40.4268C120.905 39.5529 120.788 38.7519 120.47 38.1054L118.675 38.9884C118.801 39.2442 118.905 39.6965 118.905 40.4268H120.905ZM120.472 38.1109C120.164 37.4751 119.695 36.9689 119.055 36.6656L118.199 38.4731C118.375 38.5565 118.536 38.702 118.672 38.9828L120.472 38.1109ZM119.055 36.6656C118.485 36.3957 117.849 36.2793 117.177 36.2793V38.2793C117.622 38.2793 117.952 38.3563 118.199 38.4731L119.055 36.6656ZM117.177 36.2793C116.409 36.2793 115.689 36.4504 115.05 36.8242L116.059 38.5508C116.351 38.3803 116.713 38.2793 117.177 38.2793V36.2793ZM115.054 36.8218C114.475 37.1565 113.985 37.5975 113.588 38.1381L115.201 39.3209C115.435 39.0021 115.718 38.7485 116.055 38.5532L115.054 36.8218ZM113.586 38.1405C113.22 38.6436 112.936 39.1887 112.738 39.7733L114.633 40.4142C114.764 40.0249 114.953 39.6605 115.203 39.3185L113.586 38.1405ZM112.74 39.7691C112.548 40.3282 112.436 40.8852 112.418 41.436L114.416 41.5015C114.427 41.1786 114.494 40.8189 114.631 40.4184L112.74 39.7691Z" fill="white" mask="url(#path-9-outside-1_377_4686)"/>
<path d="M1260.5 26.25C1260.5 31.075 1256.58 35 1251.75 35C1246.92 35 1243 31.075 1243 26.25C1243 21.425 1246.92 17.5 1251.75 17.5C1256.58 17.5 1260.5 21.425 1260.5 26.25ZM1255.5 39.475C1254.25 39.8 1253 40 1251.75 40C1248.11 39.9934 1244.61 38.5426 1242.03 35.9654C1239.46 33.3882 1238.01 29.8947 1238 26.25C1238 22.575 1239.45 19.25 1241.75 16.775C1241.3 16.2189 1240.72 15.7709 1240.08 15.4639C1239.43 15.1568 1238.72 14.9983 1238 15C1235.25 15 1233 17.25 1233 20V20.725C1225.57 22.925 1220.5 29.75 1220.5 37.5V52.5L1215.5 57.5V60H1260.5V57.5L1255.5 52.5V39.475ZM1238 67.5C1240.77 67.5 1243 65.275 1243 62.5H1233C1233 63.8261 1233.53 65.0979 1234.46 66.0355C1235.4 66.9732 1236.67 67.5 1238 67.5Z" fill="black"/>
<path d="M1261 26C1261 31.5228 1256.75 36 1251.5 36C1246.25 36 1242 31.5228 1242 26C1242 20.4772 1246.25 16 1251.5 16C1256.75 16 1261 20.4772 1261 26Z" fill="#EC221F"/>
<path d="M1303.5 29C1303.5 24.8579 1306.86 21.5 1311 21.5H1396C1400.14 21.5 1403.5 24.8579 1403.5 29V53C1403.5 57.1421 1400.14 60.5 1396 60.5H1311C1306.86 60.5 1303.5 57.1421 1303.5 53V29Z" fill="#B0DCFF"/>
<path d="M1303.5 29C1303.5 24.8579 1306.86 21.5 1311 21.5H1396C1400.14 21.5 1403.5 24.8579 1403.5 29V53C1403.5 57.1421 1400.14 60.5 1396 60.5H1311C1306.86 60.5 1303.5 57.1421 1303.5 53V29Z" stroke="#34AFF7" stroke-linecap="round"/>
<path d="M1330.41 47V35.3636H1334.34C1335.25 35.3636 1336 35.5284 1336.58 35.858C1337.16 36.1837 1337.59 36.625 1337.88 37.1818C1338.16 37.7386 1338.3 38.3598 1338.3 39.0455C1338.3 39.7311 1338.16 40.3542 1337.88 40.9148C1337.6 41.4754 1337.17 41.9223 1336.59 42.2557C1336.01 42.5852 1335.27 42.75 1334.36 42.75H1331.55V41.5H1334.32C1334.94 41.5 1335.45 41.392 1335.82 41.1761C1336.2 40.9602 1336.48 40.6686 1336.65 40.3011C1336.82 39.9299 1336.91 39.5114 1336.91 39.0455C1336.91 38.5795 1336.82 38.1629 1336.65 37.7955C1336.48 37.428 1336.2 37.1402 1335.82 36.9318C1335.44 36.7197 1334.93 36.6136 1334.3 36.6136H1331.82V47H1330.41ZM1340.38 47V38.2727H1341.68V39.5909H1341.77C1341.93 39.1591 1342.22 38.8087 1342.63 38.5398C1343.05 38.2708 1343.52 38.1364 1344.04 38.1364C1344.14 38.1364 1344.26 38.1383 1344.41 38.142C1344.56 38.1458 1344.67 38.1515 1344.75 38.1591V39.5227C1344.7 39.5114 1344.6 39.4943 1344.43 39.4716C1344.28 39.4451 1344.11 39.4318 1343.93 39.4318C1343.5 39.4318 1343.13 39.5208 1342.79 39.6989C1342.46 39.8731 1342.2 40.1155 1342.01 40.4261C1341.82 40.733 1341.72 41.0833 1341.72 41.4773V47H1340.38ZM1349.62 47.1818C1348.83 47.1818 1348.14 46.9943 1347.54 46.6193C1346.95 46.2443 1346.49 45.7197 1346.16 45.0455C1345.83 44.3712 1345.66 43.5833 1345.66 42.6818C1345.66 41.7727 1345.83 40.9792 1346.16 40.3011C1346.49 39.6231 1346.95 39.0966 1347.54 38.7216C1348.14 38.3466 1348.83 38.1591 1349.62 38.1591C1350.4 38.1591 1351.09 38.3466 1351.68 38.7216C1352.28 39.0966 1352.74 39.6231 1353.07 40.3011C1353.4 40.9792 1353.57 41.7727 1353.57 42.6818C1353.57 43.5833 1353.4 44.3712 1353.07 45.0455C1352.74 45.7197 1352.28 46.2443 1351.68 46.6193C1351.09 46.9943 1350.4 47.1818 1349.62 47.1818ZM1349.62 45.9773C1350.21 45.9773 1350.71 45.8239 1351.09 45.517C1351.48 45.2102 1351.77 44.8068 1351.95 44.3068C1352.14 43.8068 1352.23 43.2652 1352.23 42.6818C1352.23 42.0985 1352.14 41.5549 1351.95 41.0511C1351.77 40.5473 1351.48 40.1402 1351.09 39.8295C1350.71 39.5189 1350.21 39.3636 1349.62 39.3636C1349.02 39.3636 1348.53 39.5189 1348.14 39.8295C1347.75 40.1402 1347.47 40.5473 1347.28 41.0511C1347.1 41.5549 1347 42.0985 1347 42.6818C1347 43.2652 1347.1 43.8068 1347.28 44.3068C1347.47 44.8068 1347.75 45.2102 1348.14 45.517C1348.53 45.8239 1349.02 45.9773 1349.62 45.9773ZM1359.5 38.2727V39.4091H1354.8V38.2727H1359.5ZM1356.21 47V37.0682C1356.21 36.5682 1356.33 36.1515 1356.56 35.8182C1356.8 35.4848 1357.1 35.2348 1357.48 35.0682C1357.85 34.9015 1358.25 34.8182 1358.66 34.8182C1358.99 34.8182 1359.26 34.8447 1359.47 34.8977C1359.68 34.9508 1359.83 35 1359.94 35.0455L1359.55 36.2045C1359.48 36.1818 1359.39 36.1534 1359.27 36.1193C1359.15 36.0852 1358.99 36.0682 1358.8 36.0682C1358.36 36.0682 1358.04 36.1799 1357.84 36.4034C1357.65 36.6269 1357.55 36.9545 1357.55 37.3864V47H1356.21ZM1361.38 47V38.2727H1362.72V47H1361.38ZM1362.07 36.8182C1361.8 36.8182 1361.58 36.7292 1361.39 36.5511C1361.2 36.3731 1361.11 36.1591 1361.11 35.9091C1361.11 35.6591 1361.2 35.4451 1361.39 35.267C1361.58 35.089 1361.8 35 1362.07 35C1362.33 35 1362.55 35.089 1362.74 35.267C1362.93 35.4451 1363.02 35.6591 1363.02 35.9091C1363.02 36.1591 1362.93 36.3731 1362.74 36.5511C1362.55 36.7292 1362.33 36.8182 1362.07 36.8182ZM1366.52 35.3636V47H1365.18V35.3636H1366.52ZM1372.64 47.1818C1371.8 47.1818 1371.07 46.9962 1370.46 46.625C1369.85 46.25 1369.39 45.7273 1369.06 45.0568C1368.73 44.3826 1368.57 43.5985 1368.57 42.7045C1368.57 41.8106 1368.73 41.0227 1369.06 40.3409C1369.39 39.6553 1369.84 39.1212 1370.43 38.7386C1371.02 38.3523 1371.71 38.1591 1372.5 38.1591C1372.95 38.1591 1373.4 38.2348 1373.85 38.3864C1374.29 38.5379 1374.69 38.7841 1375.06 39.125C1375.42 39.4621 1375.71 39.9091 1375.93 40.4659C1376.14 41.0227 1376.25 41.7083 1376.25 42.5227V43.0909H1369.52V41.9318H1374.89C1374.89 41.4394 1374.79 41 1374.59 40.6136C1374.4 40.2273 1374.12 39.9223 1373.76 39.6989C1373.41 39.4754 1372.98 39.3636 1372.5 39.3636C1371.97 39.3636 1371.5 39.4962 1371.11 39.7614C1370.73 40.0227 1370.43 40.3636 1370.22 40.7841C1370.01 41.2045 1369.91 41.6553 1369.91 42.1364V42.9091C1369.91 43.5682 1370.02 44.1269 1370.25 44.5852C1370.48 45.0398 1370.8 45.3864 1371.21 45.625C1371.62 45.8598 1372.09 45.9773 1372.64 45.9773C1372.99 45.9773 1373.31 45.928 1373.59 45.8295C1373.88 45.7273 1374.13 45.5758 1374.34 45.375C1374.54 45.1705 1374.7 44.9167 1374.82 44.6136L1376.11 44.9773C1375.98 45.4167 1375.75 45.803 1375.43 46.1364C1375.1 46.4659 1374.71 46.7235 1374.23 46.9091C1373.76 47.0909 1373.23 47.1818 1372.64 47.1818Z" fill="black"/>
<defs>
<linearGradient id="paint0_linear_377_4686" x1="25.5" y1="30" x2="25.5" y2="50" gradientUnits="userSpaceOnUse">
<stop stop-color="#EC008C"/>
<stop offset="1" stop-color="#FC6767"/>
</linearGradient>
<linearGradient id="paint1_linear_377_4686" x1="35.5" y1="32" x2="35.5" y2="48" gradientUnits="userSpaceOnUse">
<stop stop-color="#E65C00"/>
<stop offset="1" stop-color="#F9D423"/>
</linearGradient>
<linearGradient id="paint2_linear_377_4686" x1="45.5" y1="34" x2="45.5" y2="46" gradientUnits="userSpaceOnUse">
<stop stop-color="#00D2FF"/>
<stop offset="1" stop-color="#3A7BD5"/>
</linearGradient>
</defs>
</svg>
